<svg version="1.2" baseProfile="tiny-ps" xmlns="http://www.w3.org/2000/svg" viewBox="0 0 129 56" width="129" height="56">
	<title>Shape 28</title>
	<style>
		tspan { white-space:pre }
		.shp0 { fill: #fe3e57 } 
	</style>
	<path id="Shape 28" class="shp0" d="M124.52 53.26C124.52 52.3 125.3 51.52 126.26 51.52C127.22 51.52 128 52.3 128 53.26C128 54.22 127.22 55 126.26 55C125.3 55 124.52 54.22 124.52 53.26ZM110.81 53.26C110.81 52.3 111.59 51.52 112.55 51.52C113.51 51.52 114.29 52.3 114.29 53.26C114.29 54.22 113.51 55 112.55 55C111.59 55 110.81 54.22 110.81 53.26ZM97.32 53.26C97.32 52.3 98.1 51.52 99.06 51.52C100.02 51.52 100.8 52.3 100.8 53.26C100.8 54.22 100.02 55 99.06 55C98.1 55 97.32 54.22 97.32 53.26ZM83.61 53.26C83.61 52.3 84.39 51.52 85.35 51.52C86.31 51.52 87.09 52.3 87.09 53.26C87.09 54.22 86.31 55 85.35 55C84.39 55 83.61 54.22 83.61 53.26ZM70.11 53.26C70.11 52.3 70.89 51.52 71.85 51.52C72.82 51.52 73.6 52.3 73.6 53.26C73.6 54.22 72.82 55 71.85 55C70.89 55 70.11 54.22 70.11 53.26ZM56.4 53.26C56.4 52.3 57.18 51.52 58.14 51.52C59.11 51.52 59.89 52.3 59.89 53.26C59.89 54.22 59.11 55 58.14 55C57.18 55 56.4 54.22 56.4 53.26ZM42.91 53.26C42.91 52.3 43.69 51.52 44.65 51.52C45.61 51.52 46.39 52.3 46.39 53.26C46.39 54.22 45.61 55 44.65 55C43.69 55 42.91 54.22 42.91 53.26ZM29.2 53.26C29.2 52.3 29.98 51.52 30.94 51.52C31.9 51.52 32.68 52.3 32.68 53.26C32.68 54.22 31.9 55 30.94 55C29.98 55 29.2 54.22 29.2 53.26ZM15.71 53.26C15.71 52.3 16.49 51.52 17.45 51.52C18.41 51.52 19.19 52.3 19.19 53.26C19.19 54.22 18.41 55 17.45 55C16.49 55 15.71 54.22 15.71 53.26ZM2 53.26C2 52.3 2.78 51.52 3.74 51.52C4.7 51.52 5.48 52.3 5.48 53.26C5.48 54.22 4.7 55 3.74 55C2.78 55 2 54.22 2 53.26ZM124.52 36.75C124.52 35.79 125.3 35.02 126.26 35.02C127.22 35.02 128 35.79 128 36.75C128 37.71 127.22 38.49 126.26 38.49C125.3 38.49 124.52 37.71 124.52 36.75ZM110.81 36.75C110.81 35.79 111.59 35.02 112.55 35.02C113.51 35.02 114.29 35.79 114.29 36.75C114.29 37.71 113.51 38.49 112.55 38.49C111.59 38.49 110.81 37.71 110.81 36.75ZM97.32 36.75C97.32 35.79 98.1 35.02 99.06 35.02C100.02 35.02 100.8 35.79 100.8 36.75C100.8 37.71 100.02 38.49 99.06 38.49C98.1 38.49 97.32 37.71 97.32 36.75ZM83.61 36.75C83.61 35.79 84.39 35.02 85.35 35.02C86.31 35.02 87.09 35.79 87.09 36.75C87.09 37.71 86.31 38.49 85.35 38.49C84.39 38.49 83.61 37.71 83.61 36.75ZM70.11 36.75C70.11 35.79 70.89 35.02 71.85 35.02C72.82 35.02 73.6 35.79 73.6 36.75C73.6 37.71 72.82 38.49 71.85 38.49C70.89 38.49 70.11 37.71 70.11 36.75ZM56.4 36.75C56.4 35.79 57.18 35.02 58.14 35.02C59.11 35.02 59.89 35.79 59.89 36.75C59.89 37.71 59.11 38.49 58.14 38.49C57.18 38.49 56.4 37.71 56.4 36.75ZM42.91 36.75C42.91 35.79 43.69 35.02 44.65 35.02C45.61 35.02 46.39 35.79 46.39 36.75C46.39 37.71 45.61 38.49 44.65 38.49C43.69 38.49 42.91 37.71 42.91 36.75ZM29.2 36.75C29.2 35.79 29.98 35.02 30.94 35.02C31.9 35.02 32.68 35.79 32.68 36.75C32.68 37.71 31.9 38.49 30.94 38.49C29.98 38.49 29.2 37.71 29.2 36.75ZM15.71 36.75C15.71 35.79 16.49 35.02 17.45 35.02C18.41 35.02 19.19 35.79 19.19 36.75C19.19 37.71 18.41 38.49 17.45 38.49C16.49 38.49 15.71 37.71 15.71 36.75ZM2 36.75C2 35.79 2.78 35.02 3.74 35.02C4.7 35.02 5.48 35.79 5.48 36.75C5.48 37.71 4.7 38.49 3.74 38.49C2.78 38.49 2 37.71 2 36.75ZM124.52 20.25C124.52 19.29 125.3 18.51 126.26 18.51C127.22 18.51 128 19.29 128 20.25C128 21.2 127.22 21.98 126.26 21.98C125.3 21.98 124.52 21.2 124.52 20.25ZM110.81 20.25C110.81 19.29 111.59 18.51 112.55 18.51C113.51 18.51 114.29 19.29 114.29 20.25C114.29 21.2 113.51 21.98 112.55 21.98C111.59 21.98 110.81 21.2 110.81 20.25ZM97.32 20.25C97.32 19.29 98.1 18.51 99.06 18.51C100.02 18.51 100.8 19.29 100.8 20.25C100.8 21.2 100.02 21.98 99.06 21.98C98.1 21.98 97.32 21.2 97.32 20.25ZM83.61 20.25C83.61 19.29 84.39 18.51 85.35 18.51C86.31 18.51 87.09 19.29 87.09 20.25C87.09 21.2 86.31 21.98 85.35 21.98C84.39 21.98 83.61 21.2 83.61 20.25ZM70.11 20.25C70.11 19.29 70.89 18.51 71.85 18.51C72.82 18.51 73.6 19.29 73.6 20.25C73.6 21.2 72.82 21.98 71.85 21.98C70.89 21.98 70.11 21.2 70.11 20.25ZM56.4 20.25C56.4 19.29 57.18 18.51 58.14 18.51C59.11 18.51 59.89 19.29 59.89 20.25C59.89 21.2 59.11 21.98 58.14 21.98C57.18 21.98 56.4 21.2 56.4 20.25ZM42.91 20.25C42.91 19.29 43.69 18.51 44.65 18.51C45.61 18.51 46.39 19.29 46.39 20.25C46.39 21.2 45.61 21.98 44.65 21.98C43.69 21.98 42.91 21.2 42.91 20.25ZM29.2 20.25C29.2 19.29 29.98 18.51 30.94 18.51C31.9 18.51 32.68 19.29 32.68 20.25C32.68 21.2 31.9 21.98 30.94 21.98C29.98 21.98 29.2 21.2 29.2 20.25ZM15.71 20.25C15.71 19.29 16.49 18.51 17.45 18.51C18.41 18.51 19.19 19.29 19.19 20.25C19.19 21.2 18.41 21.98 17.45 21.98C16.49 21.98 15.71 21.2 15.71 20.25ZM2 20.25C2 19.29 2.78 18.51 3.74 18.51C4.7 18.51 5.48 19.29 5.48 20.25C5.48 21.2 4.7 21.98 3.74 21.98C2.78 21.98 2 21.2 2 20.25ZM124.52 3.74C124.52 2.78 125.3 2 126.26 2C127.22 2 128 2.78 128 3.74C128 4.7 127.22 5.48 126.26 5.48C125.3 5.48 124.52 4.7 124.52 3.74ZM110.81 3.74C110.81 2.78 111.59 2 112.55 2C113.51 2 114.29 2.78 114.29 3.74C114.29 4.7 113.51 5.48 112.55 5.48C111.59 5.48 110.81 4.7 110.81 3.74ZM97.32 3.74C97.32 2.78 98.1 2 99.06 2C100.02 2 100.8 2.78 100.8 3.74C100.8 4.7 100.02 5.48 99.06 5.48C98.1 5.48 97.32 4.7 97.32 3.74ZM83.61 3.74C83.61 2.78 84.39 2 85.35 2C86.31 2 87.09 2.78 87.09 3.74C87.09 4.7 86.31 5.48 85.35 5.48C84.39 5.48 83.61 4.7 83.61 3.74ZM70.11 3.74C70.11 2.78 70.89 2 71.85 2C72.82 2 73.6 2.78 73.6 3.74C73.6 4.7 72.82 5.48 71.85 5.48C70.89 5.48 70.11 4.7 70.11 3.74ZM56.4 3.74C56.4 2.78 57.18 2 58.14 2C59.11 2 59.89 2.78 59.89 3.74C59.89 4.7 59.11 5.48 58.14 5.48C57.18 5.48 56.4 4.7 56.4 3.74ZM42.91 3.74C42.91 2.78 43.69 2 44.65 2C45.61 2 46.39 2.78 46.39 3.74C46.39 4.7 45.61 5.48 44.65 5.48C43.69 5.48 42.91 4.7 42.91 3.74ZM29.2 3.74C29.2 2.78 29.98 2 30.94 2C31.9 2 32.68 2.78 32.68 3.74C32.68 4.7 31.9 5.48 30.94 5.48C29.98 5.48 29.2 4.7 29.2 3.74ZM15.71 3.74C15.71 2.78 16.49 2 17.45 2C18.41 2 19.19 2.78 19.19 3.74C19.19 4.7 18.41 5.48 17.45 5.48C16.49 5.48 15.71 4.7 15.71 3.74ZM2 3.74C2 2.78 2.78 2 3.74 2C4.7 2 5.48 2.78 5.48 3.74C5.48 4.7 4.7 5.48 3.74 5.48C2.78 5.48 2 4.7 2 3.74Z" />
</svg>