<svg xmlns="http://www.w3.org/2000/svg" viewBox="0 0 258 671" width="258" height="671">
	<style>
		tspan { white-space:pre }
		.shp0 { fill: none;stroke: #ececec } 
		.shp1 { fill: none;stroke: #fe3e57;stroke-width: 2 } 
		.shp2 { fill: none;stroke: #34c3ff;stroke-width: 2 } 
		.shp3 { fill: #34c3ff } 
		.shp4 { fill: #5800e4 } 
		.shp5 { fill: #ffb534 } 
		.shp6 { fill: #fe3e57 } 
	</style>
	<path id="line 1 copy" class="shp0" d="M36.8 569.8C36.8 569.8 68.08 467 85.5 428.76C102.92 390.52 126.77 361.4 168.15 329.75C209.53 298.09 229.04 226.12 160.03 139.19C91.01 52.27 40.02 27.34 27.95 18.7" />
	<path id="line 2 copy" class="shp0" d="M34.59 668.81C34.59 668.81 55.69 669.6 81.81 571.67C107.93 473.74 120.53 446.56 140.11 411.01C159.69 375.46 180.64 353.25 208.73 333.48C236.82 313.72 283.02 255.99 214.63 155.07C146.25 54.16 22.71 -22.28 2.12 12.16" />
	<path id="Ellipse 1 copy" class="shp1" d="M139.33 213.94C146.76 213.94 152.78 220.14 152.78 227.78C152.78 235.43 146.76 241.62 139.33 241.62C131.9 241.62 125.87 235.43 125.87 227.78C125.87 220.14 131.9 213.94 139.33 213.94Z" />
	<path id="Ellipse 2 copy" class="shp2" d="M168.28 471.19C170.61 471.19 172.5 473.08 172.5 475.42C172.5 477.76 170.61 479.66 168.28 479.66C165.95 479.66 164.06 477.76 164.06 475.42C164.06 473.08 165.95 471.19 168.28 471.19Z" />
	<path id="Shape 3 copy" class="shp3" d="M99.04 131.16L101.95 134.21C102.31 134.58 102.31 135.18 101.95 135.55C101.6 135.93 101.02 135.93 100.67 135.55L97.75 132.51L94.84 135.55C94.48 135.93 93.91 135.93 93.55 135.55L93.55 135.55C93.2 135.18 93.2 134.58 93.55 134.21L96.47 131.16L93.55 128.12C93.2 127.75 93.2 127.15 93.55 126.77L93.55 126.77C93.91 126.4 94.48 126.4 94.84 126.77L97.75 129.82L100.67 126.77C101.02 126.4 101.6 126.4 101.95 126.77L101.95 126.77C102.31 127.15 102.31 127.75 101.95 128.12L99.04 131.16Z" />
	<path id="Rectangle 519 copy" class="shp4" d="M93.61 326.81L89.27 322.46L93.61 318.1L97.96 322.46L93.61 326.81Z" />
	<path id="Shape 3 copy 4" class="shp5" d="M223.47 370.2L226.39 373.25C226.74 373.62 226.74 374.22 226.39 374.59C226.03 374.97 225.46 374.97 225.1 374.59L222.19 371.55L219.27 374.59C218.92 374.97 218.34 374.97 217.99 374.59L217.99 374.59C217.63 374.22 217.63 373.62 217.99 373.25L220.9 370.2L217.99 367.16C217.63 366.79 217.63 366.18 217.99 365.81L217.99 365.81C218.34 365.44 218.92 365.44 219.27 365.81L222.19 368.86L225.1 365.81C225.46 365.44 226.03 365.44 226.39 365.81L226.39 365.81C226.74 366.18 226.74 366.79 226.39 367.16L223.47 370.2Z" />
	<path id="Shape 3 copy 5" class="shp5" d="M228.46 82.39L231.38 85.44C231.73 85.81 231.73 86.41 231.38 86.78C231.02 87.15 230.45 87.15 230.09 86.78L227.18 83.74L224.26 86.78C223.91 87.15 223.33 87.15 222.98 86.78L222.98 86.78C222.62 86.41 222.62 85.81 222.98 85.44L225.89 82.39L222.98 79.35C222.62 78.97 222.62 78.37 222.98 78L222.98 78C223.33 77.63 223.91 77.63 224.26 78L227.18 81.05L230.09 78C230.45 77.63 231.02 77.63 231.38 78L231.38 78C231.73 78.37 231.73 78.97 231.38 79.35L228.46 82.39Z" />
	<path id="Shape 3 copy 4" class="shp6" d="M117.74 607.59L120.66 610.64C121.01 611.01 121.01 611.61 120.66 611.98C120.3 612.36 119.72 612.36 119.37 611.98L116.46 608.94L113.54 611.98C113.19 612.36 112.61 612.36 112.25 611.98L112.25 611.98C111.9 611.61 111.9 611.01 112.25 610.64L115.17 607.59L112.25 604.55C111.9 604.18 111.9 603.57 112.25 603.2L112.25 603.2C112.61 602.83 113.19 602.83 113.54 603.2L116.46 606.25L119.37 603.2C119.72 602.83 120.3 602.83 120.66 603.2L120.66 603.2C121.01 603.57 121.01 604.18 120.66 604.55L117.74 607.59Z" />
</svg>