<svg xmlns="http://www.w3.org/2000/svg" viewBox="0 0 335 871" width="335" height="871">
	<style>
		tspan { white-space:pre }
		.shp0 { fill: none;stroke: #ececec } 
		.shp1 { fill: none;stroke: #fe3e57;stroke-width: 2 } 
		.shp2 { fill: none;stroke: #34c3ff;stroke-width: 2 } 
		.shp3 { fill: #34c3ff } 
		.shp4 { fill: #5800e4 } 
		.shp5 { fill: #ffb534 } 
		.shp6 { fill: #fe3e57 } 
	</style>
	<path id="line 1" class="shp0" d="M287.97 131.65C287.97 131.65 247.23 265.21 224.55 314.89C201.87 364.58 170.82 402.4 116.93 443.53C63.04 484.66 37.62 578.16 127.5 691.09C217.37 804.03 283.78 836.42 299.5 847.64" />
	<path id="line 2" class="shp0" d="M290.86 3.01C290.86 3.01 263.37 1.98 229.36 129.22C195.34 256.46 178.94 291.76 153.44 337.95C127.94 384.14 100.65 413 64.07 438.68C27.49 464.35 -32.67 539.36 56.39 670.46C145.44 801.57 306.33 900.88 333.14 856.14" />
	<path id="Ellipse 1" class="shp1" d="M154.48 558C164.16 558 172 566.06 172 576C172 585.94 164.16 594 154.48 594C144.81 594 136.97 585.94 136.97 576C136.97 566.06 144.81 558 154.48 558Z" />
	<path id="Ellipse 2" class="shp2" d="M115.47 228C118.51 228 120.97 230.46 120.97 233.5C120.97 236.54 118.51 239 115.47 239C112.43 239 109.97 236.54 109.97 233.5C109.97 230.46 112.43 228 115.47 228Z" />
	<path id="Shape 3" class="shp3" d="M206.92 701.53L203.13 697.57C202.66 697.09 202.66 696.31 203.13 695.82C203.59 695.34 204.34 695.34 204.8 695.82L208.6 699.78L212.39 695.82C212.85 695.34 213.6 695.34 214.07 695.82L214.07 695.82C214.53 696.31 214.53 697.09 214.07 697.57L210.27 701.53L214.07 705.49C214.53 705.97 214.53 706.75 214.07 707.23L214.07 707.23C213.6 707.71 212.85 707.71 212.39 707.23L208.6 703.27L204.8 707.23C204.34 707.71 203.59 707.71 203.13 707.23L203.13 707.23C202.66 706.75 202.66 705.97 203.13 705.49L206.92 701.53Z" />
	<path id="Rectangle 519" class="shp4" d="M213.99 447.34L219.65 453L213.99 458.66L208.33 453L213.99 447.34Z" />
	<path id="Shape 3 copy 2" class="shp5" d="M42.28 370.19L38.48 366.24C38.02 365.75 38.02 364.97 38.48 364.49C38.94 364.01 39.69 364.01 40.16 364.49L43.95 368.45L47.75 364.49C48.21 364.01 48.96 364.01 49.42 364.49L49.42 364.49C49.88 364.97 49.88 365.75 49.42 366.24L45.63 370.19L49.42 374.15C49.88 374.63 49.88 375.42 49.42 375.9L49.42 375.9C48.96 376.38 48.21 376.38 47.75 375.9L43.95 371.94L40.16 375.9C39.69 376.38 38.94 376.38 38.48 375.9L38.48 375.9C38.02 375.42 38.02 374.63 38.48 374.15L42.28 370.19Z" />
	<path id="Shape 3 copy 3" class="shp6" d="M182.57 82.55L178.77 78.59C178.31 78.11 178.31 77.33 178.77 76.84C179.23 76.36 179.98 76.36 180.45 76.84L184.24 80.8L188.04 76.84C188.5 76.36 189.25 76.36 189.71 76.84L189.71 76.84C190.17 77.33 190.17 78.11 189.71 78.59L185.92 82.55L189.71 86.51C190.17 86.99 190.17 87.77 189.71 88.25L189.71 88.25C189.25 88.74 188.5 88.74 188.04 88.25L184.24 84.3L180.45 88.25C179.98 88.74 179.23 88.74 178.77 88.25L178.77 88.25C178.31 87.77 178.31 86.99 178.77 86.51L182.57 82.55Z" />
</svg>