<svg version="1.2" baseProfile="tiny-ps" xmlns="http://www.w3.org/2000/svg" viewBox="0 0 67 54" width="67" height="54">
	<title>Shape_2</title>
	<style>
		tspan { white-space:pre }
		.shp0 { fill: #fe3e57 } 
	</style>
	<path id="Shape_2" class="shp0" d="M2.75 1C3.72 1 4.5 1.78 4.5 2.73C4.5 3.69 3.72 4.47 2.75 4.47C1.78 4.47 1 3.69 1 2.73C1 1.78 1.78 1 2.75 1ZM15.05 1C16.02 1 16.81 1.78 16.81 2.73C16.81 3.69 16.02 4.47 15.05 4.47C14.07 4.47 13.28 3.69 13.28 2.73C13.28 1.78 14.07 1 15.05 1ZM27.34 1C28.31 1 29.09 1.78 29.09 2.73C29.09 3.69 28.31 4.47 27.34 4.47C26.38 4.47 25.59 3.69 25.59 2.73C25.59 1.78 26.38 1 27.34 1ZM39.66 1C40.62 1 41.41 1.78 41.41 2.73C41.41 3.69 40.62 4.47 39.66 4.47C38.69 4.47 37.91 3.69 37.91 2.73C37.91 1.78 38.69 1 39.66 1ZM51.95 1C52.93 1 53.72 1.78 53.72 2.73C53.72 3.69 52.93 4.47 51.95 4.47C50.98 4.47 50.19 3.69 50.19 2.73C50.19 1.78 50.98 1 51.95 1ZM64.25 1C65.22 1 66 1.78 66 2.73C66 3.69 65.22 4.47 64.25 4.47C63.28 4.47 62.5 3.69 62.5 2.73C62.5 1.78 63.28 1 64.25 1ZM2.75 13.12C3.72 13.12 4.5 13.9 4.5 14.86C4.5 15.82 3.72 16.59 2.75 16.59C1.78 16.59 1 15.82 1 14.86C1 13.9 1.78 13.12 2.75 13.12ZM15.05 13.12C16.02 13.12 16.81 13.9 16.81 14.86C16.81 15.82 16.02 16.59 15.05 16.59C14.07 16.59 13.28 15.82 13.28 14.86C13.28 13.9 14.07 13.12 15.05 13.12ZM27.34 13.12C28.31 13.12 29.09 13.9 29.09 14.86C29.09 15.82 28.31 16.59 27.34 16.59C26.38 16.59 25.59 15.82 25.59 14.86C25.59 13.9 26.38 13.12 27.34 13.12ZM39.66 13.12C40.62 13.12 41.41 13.9 41.41 14.86C41.41 15.82 40.62 16.59 39.66 16.59C38.69 16.59 37.91 15.82 37.91 14.86C37.91 13.9 38.69 13.12 39.66 13.12ZM51.95 13.12C52.93 13.12 53.72 13.9 53.72 14.86C53.72 15.82 52.93 16.59 51.95 16.59C50.98 16.59 50.19 15.82 50.19 14.86C50.19 13.9 50.98 13.12 51.95 13.12ZM64.25 13.12C65.22 13.12 66 13.9 66 14.86C66 15.82 65.22 16.59 64.25 16.59C63.28 16.59 62.5 15.82 62.5 14.86C62.5 13.9 63.28 13.12 64.25 13.12ZM2.75 25.28C3.72 25.28 4.5 26.05 4.5 27C4.5 27.95 3.72 28.72 2.75 28.72C1.78 28.72 1 27.95 1 27C1 26.05 1.78 25.28 2.75 25.28ZM15.05 25.28C16.02 25.28 16.81 26.05 16.81 27C16.81 27.95 16.02 28.72 15.05 28.72C14.07 28.72 13.28 27.95 13.28 27C13.28 26.05 14.07 25.28 15.05 25.28ZM27.34 25.28C28.31 25.28 29.09 26.05 29.09 27C29.09 27.95 28.31 28.72 27.34 28.72C26.38 28.72 25.59 27.95 25.59 27C25.59 26.05 26.38 25.28 27.34 25.28ZM39.66 25.28C40.62 25.28 41.41 26.05 41.41 27C41.41 27.95 40.62 28.72 39.66 28.72C38.69 28.72 37.91 27.95 37.91 27C37.91 26.05 38.69 25.28 39.66 25.28ZM51.95 25.28C52.93 25.28 53.72 26.05 53.72 27C53.72 27.95 52.93 28.72 51.95 28.72C50.98 28.72 50.19 27.95 50.19 27C50.19 26.05 50.98 25.28 51.95 25.28ZM64.25 25.28C65.22 25.28 66 26.05 66 27C66 27.95 65.22 28.72 64.25 28.72C63.28 28.72 62.5 27.95 62.5 27C62.5 26.05 63.28 25.28 64.25 25.28ZM2.75 37.41C3.72 37.41 4.5 38.18 4.5 39.14C4.5 40.1 3.72 40.87 2.75 40.87C1.78 40.87 1 40.1 1 39.14C1 38.18 1.78 37.41 2.75 37.41ZM15.05 37.41C16.02 37.41 16.81 38.18 16.81 39.14C16.81 40.1 16.02 40.87 15.05 40.87C14.07 40.87 13.28 40.1 13.28 39.14C13.28 38.18 14.07 37.41 15.05 37.41ZM27.34 37.41C28.31 37.41 29.09 38.18 29.09 39.14C29.09 40.1 28.31 40.87 27.34 40.87C26.38 40.87 25.59 40.1 25.59 39.14C25.59 38.18 26.38 37.41 27.34 37.41ZM39.66 37.41C40.62 37.41 41.41 38.18 41.41 39.14C41.41 40.1 40.62 40.87 39.66 40.87C38.69 40.87 37.91 40.1 37.91 39.14C37.91 38.18 38.69 37.41 39.66 37.41ZM51.95 37.41C52.93 37.41 53.72 38.18 53.72 39.14C53.72 40.1 52.93 40.87 51.95 40.87C50.98 40.87 50.19 40.1 50.19 39.14C50.19 38.18 50.98 37.41 51.95 37.41ZM64.25 37.41C65.22 37.41 66 38.18 66 39.14C66 40.1 65.22 40.87 64.25 40.87C63.28 40.87 62.5 40.1 62.5 39.14C62.5 38.18 63.28 37.41 64.25 37.41ZM2.75 49.53C3.72 49.53 4.5 50.31 4.5 51.27C4.5 52.22 3.72 53 2.75 53C1.78 53 1 52.22 1 51.27C1 50.31 1.78 49.53 2.75 49.53ZM15.05 49.53C16.02 49.53 16.81 50.31 16.81 51.27C16.81 52.22 16.02 53 15.05 53C14.07 53 13.28 52.22 13.28 51.27C13.28 50.31 14.07 49.53 15.05 49.53ZM27.34 49.53C28.31 49.53 29.09 50.31 29.09 51.27C29.09 52.22 28.31 53 27.34 53C26.38 53 25.59 52.22 25.59 51.27C25.59 50.31 26.38 49.53 27.34 49.53ZM39.66 49.53C40.62 49.53 41.41 50.31 41.41 51.27C41.41 52.22 40.62 53 39.66 53C38.69 53 37.91 52.22 37.91 51.27C37.91 50.31 38.69 49.53 39.66 49.53ZM51.95 49.53C52.93 49.53 53.72 50.31 53.72 51.27C53.72 52.22 52.93 53 51.95 53C50.98 53 50.19 52.22 50.19 51.27C50.19 50.31 50.98 49.53 51.95 49.53ZM64.25 49.53C65.22 49.53 66 50.31 66 51.27C66 52.22 65.22 53 64.25 53C63.28 53 62.5 52.22 62.5 51.27C62.5 50.31 63.28 49.53 64.25 49.53Z" />
</svg>