<svg version="1.2" baseProfile="tiny-ps" xmlns="http://www.w3.org/2000/svg" viewBox="0 0 123 124" width="123" height="124">
	<title>Shape_1</title>
	<style>
		tspan { white-space:pre }
		.shp0 { fill: #ffb534 } 
	</style>
	<path id="Shape_1" class="shp0" d="M61.99 122.99C61.61 122.99 61.24 122.99 60.87 122.98C60.54 122.98 60.29 122.71 60.29 122.38C60.3 122.05 60.56 121.81 60.89 121.8C62.24 121.83 63.61 121.8 64.96 121.74C65.28 121.71 65.56 121.97 65.57 122.3C65.59 122.62 65.34 122.9 65.02 122.92C64.01 122.97 63 122.99 61.99 122.99ZM56.78 122.77C56.76 122.77 56.75 122.77 56.73 122.76C55.36 122.64 53.97 122.47 52.61 122.26C52.29 122.21 52.07 121.91 52.12 121.58C52.17 121.26 52.47 121.04 52.79 121.09C54.13 121.3 55.48 121.47 56.83 121.59C57.15 121.61 57.39 121.9 57.36 122.23C57.34 122.53 57.08 122.77 56.78 122.77ZM69.08 122.57C68.78 122.57 68.53 122.35 68.49 122.05C68.46 121.73 68.69 121.43 69.01 121.39C70.35 121.23 71.7 121.02 73.03 120.77C73.35 120.71 73.65 120.92 73.71 121.24C73.77 121.56 73.56 121.87 73.24 121.93C71.89 122.19 70.52 122.4 69.15 122.57C69.12 122.57 69.1 122.57 69.08 122.57ZM48.67 121.48C48.63 121.48 48.58 121.48 48.54 121.47C47.2 121.16 45.85 120.8 44.53 120.39C44.22 120.3 44.05 119.97 44.14 119.66C44.23 119.34 44.56 119.17 44.87 119.26C46.16 119.66 47.49 120.01 48.8 120.32C49.12 120.39 49.32 120.71 49.24 121.02C49.18 121.3 48.94 121.48 48.67 121.48ZM77.14 121.03C76.88 121.03 76.64 120.85 76.57 120.59C76.49 120.27 76.68 119.95 76.99 119.87C78.29 119.52 79.6 119.12 80.88 118.69C81.19 118.58 81.52 118.75 81.63 119.06C81.73 119.37 81.57 119.7 81.26 119.81C79.96 120.25 78.62 120.66 77.29 121.01C77.24 121.02 77.19 121.03 77.14 121.03ZM40.81 119.08C40.74 119.08 40.67 119.07 40.6 119.04C39.31 118.54 38.03 118 36.78 117.41C36.48 117.27 36.35 116.92 36.49 116.63C36.63 116.33 36.97 116.2 37.27 116.34C38.5 116.91 39.76 117.45 41.02 117.93C41.32 118.05 41.47 118.39 41.36 118.7C41.27 118.93 41.05 119.08 40.81 119.08ZM84.91 118.38C84.68 118.38 84.46 118.24 84.37 118.01C84.24 117.71 84.38 117.36 84.68 117.24C85.92 116.71 87.17 116.14 88.37 115.53C88.66 115.38 89.01 115.5 89.16 115.79C89.3 116.08 89.19 116.44 88.9 116.58C87.67 117.21 86.4 117.79 85.13 118.33C85.06 118.36 84.98 118.38 84.91 118.38ZM33.36 115.59C33.26 115.59 33.16 115.57 33.07 115.52C31.87 114.85 30.67 114.13 29.51 113.38C29.24 113.2 29.16 112.83 29.33 112.56C29.51 112.28 29.87 112.2 30.15 112.38C31.28 113.12 32.46 113.83 33.64 114.48C33.92 114.64 34.03 115 33.87 115.29C33.76 115.48 33.56 115.59 33.36 115.59ZM92.24 114.66C92.04 114.66 91.84 114.56 91.73 114.37C91.57 114.09 91.66 113.73 91.94 113.56C93.1 112.87 94.25 112.13 95.36 111.35C95.63 111.17 95.99 111.24 96.18 111.5C96.36 111.77 96.29 112.14 96.03 112.33C94.89 113.12 93.72 113.87 92.53 114.58C92.44 114.64 92.34 114.66 92.24 114.66ZM26.45 111.11C26.33 111.11 26.21 111.07 26.1 110.99C25 110.16 23.91 109.28 22.87 108.37C22.62 108.16 22.59 107.79 22.8 107.54C23.02 107.29 23.39 107.26 23.63 107.47C24.65 108.36 25.72 109.22 26.81 110.04C27.07 110.24 27.12 110.61 26.92 110.87C26.81 111.02 26.63 111.11 26.45 111.11ZM98.99 109.97C98.82 109.97 98.65 109.89 98.53 109.74C98.33 109.49 98.37 109.12 98.62 108.91C99.68 108.07 100.72 107.17 101.71 106.25C101.95 106.03 102.32 106.05 102.54 106.29C102.76 106.53 102.75 106.9 102.51 107.12C101.49 108.06 100.43 108.98 99.35 109.84C99.25 109.92 99.12 109.97 98.99 109.97ZM20.23 105.71C20.08 105.71 19.93 105.65 19.82 105.54C18.84 104.56 17.88 103.54 16.97 102.5C16.75 102.25 16.78 101.88 17.02 101.66C17.26 101.45 17.63 101.47 17.85 101.72C18.74 102.74 19.68 103.74 20.64 104.7C20.87 104.93 20.87 105.3 20.65 105.53C20.53 105.65 20.38 105.71 20.23 105.71ZM105.04 104.38C104.9 104.38 104.75 104.32 104.64 104.22C104.4 103.99 104.39 103.62 104.62 103.38C105.55 102.39 106.46 101.36 107.32 100.31C107.53 100.06 107.9 100.03 108.14 100.23C108.39 100.44 108.43 100.82 108.22 101.07C107.34 102.14 106.42 103.19 105.47 104.19C105.35 104.32 105.2 104.38 105.04 104.38ZM14.8 99.5C14.62 99.5 14.45 99.42 14.33 99.27C13.5 98.17 12.69 97.03 11.93 95.87C11.75 95.6 11.82 95.23 12.09 95.05C12.36 94.87 12.73 94.94 12.9 95.21C13.65 96.35 14.45 97.47 15.27 98.55C15.46 98.81 15.41 99.18 15.16 99.38C15.05 99.46 14.93 99.5 14.8 99.5ZM110.28 98C110.16 98 110.04 97.97 109.94 97.89C109.68 97.7 109.61 97.33 109.8 97.07C110.6 95.96 111.36 94.81 112.06 93.65C112.23 93.38 112.59 93.29 112.87 93.46C113.15 93.63 113.23 94 113.06 94.28C112.34 95.45 111.56 96.62 110.76 97.76C110.64 97.92 110.46 98 110.28 98ZM10.27 92.61C10.07 92.61 9.87 92.5 9.76 92.31C9.08 91.1 8.43 89.86 7.84 88.61C7.7 88.31 7.82 87.96 8.12 87.82C8.41 87.67 8.76 87.8 8.9 88.09C9.48 89.32 10.11 90.54 10.78 91.72C10.94 92.01 10.84 92.37 10.56 92.53C10.47 92.58 10.37 92.61 10.27 92.61ZM114.6 90.96C114.51 90.96 114.42 90.94 114.33 90.89C114.04 90.74 113.93 90.38 114.08 90.09C114.71 88.88 115.31 87.64 115.85 86.4C115.98 86.1 116.33 85.96 116.63 86.1C116.92 86.23 117.06 86.58 116.93 86.88C116.37 88.14 115.76 89.41 115.12 90.64C115.02 90.85 114.81 90.96 114.6 90.96ZM6.73 85.15C6.49 85.15 6.27 85.01 6.18 84.78C5.67 83.49 5.21 82.17 4.79 80.84C4.69 80.53 4.86 80.2 5.17 80.1C5.48 80 5.81 80.17 5.91 80.48C6.32 81.78 6.78 83.08 7.27 84.34C7.39 84.65 7.24 84.99 6.94 85.11C6.87 85.14 6.8 85.15 6.73 85.15ZM117.92 83.38C117.85 83.38 117.78 83.37 117.72 83.35C117.41 83.23 117.25 82.9 117.36 82.59C117.82 81.31 118.24 80 118.61 78.69C118.69 78.37 119.02 78.19 119.33 78.28C119.64 78.37 119.82 78.69 119.74 79.01C119.36 80.35 118.93 81.69 118.47 82.99C118.38 83.23 118.16 83.38 117.92 83.38ZM4.24 77.27C3.97 77.27 3.73 77.09 3.67 76.81C3.34 75.47 3.06 74.09 2.83 72.72C2.78 72.4 2.99 72.09 3.31 72.04C3.63 71.98 3.93 72.2 3.99 72.52C4.22 73.87 4.49 75.22 4.81 76.54C4.89 76.85 4.69 77.17 4.38 77.25C4.33 77.26 4.28 77.27 4.24 77.27ZM120.15 75.42C120.11 75.42 120.07 75.41 120.03 75.41C119.71 75.34 119.51 75.03 119.58 74.7C119.85 73.37 120.09 72.01 120.27 70.67C120.32 70.34 120.6 70.12 120.93 70.16C121.25 70.21 121.48 70.5 121.43 70.83C121.25 72.2 121.01 73.59 120.73 74.95C120.67 75.23 120.42 75.42 120.15 75.42ZM2.86 69.11C2.56 69.11 2.31 68.88 2.28 68.58C2.14 67.19 2.05 65.79 2.01 64.41C2 64.08 2.25 63.81 2.58 63.8C2.9 63.78 3.17 64.04 3.18 64.37C3.22 65.73 3.31 67.1 3.45 68.46C3.48 68.78 3.24 69.07 2.92 69.11C2.9 69.11 2.88 69.11 2.86 69.11ZM121.27 67.22C121.26 67.22 121.25 67.22 121.23 67.22C120.91 67.2 120.67 66.92 120.69 66.59C120.78 65.23 120.83 63.86 120.83 62.49C120.83 61.25 120.79 59.99 120.71 58.74C120.69 58.42 120.94 58.13 121.26 58.11C121.59 58.09 121.86 58.34 121.88 58.67C121.96 59.94 122 61.22 122 62.49C122 63.88 121.95 65.29 121.86 66.67C121.84 66.98 121.58 67.22 121.27 67.22ZM2.61 60.84C2.6 60.84 2.59 60.84 2.58 60.84C2.26 60.83 2.01 60.55 2.02 60.23C2.07 58.83 2.17 57.43 2.31 56.06C2.35 55.73 2.64 55.5 2.96 55.53C3.28 55.56 3.52 55.85 3.48 56.18C3.34 57.53 3.24 58.91 3.19 60.27C3.18 60.59 2.92 60.84 2.61 60.84ZM120.9 55.18C120.61 55.18 120.36 54.96 120.32 54.66C120.14 53.31 119.92 51.95 119.65 50.62C119.58 50.3 119.79 49.99 120.11 49.92C120.43 49.86 120.73 50.06 120.8 50.38C121.07 51.74 121.3 53.13 121.48 54.51C121.52 54.83 121.3 55.13 120.98 55.17C120.95 55.18 120.92 55.18 120.9 55.18ZM3.47 52.61C3.44 52.61 3.4 52.61 3.37 52.6C3.05 52.54 2.84 52.24 2.89 51.92C3.13 50.55 3.42 49.17 3.75 47.83C3.83 47.51 4.15 47.31 4.46 47.4C4.78 47.47 4.97 47.8 4.89 48.11C4.57 49.43 4.28 50.78 4.05 52.12C4 52.41 3.75 52.61 3.47 52.61ZM119.26 47.07C119.01 47.07 118.77 46.9 118.7 46.63C118.34 45.33 117.93 44.01 117.48 42.73C117.37 42.42 117.53 42.08 117.84 41.97C118.14 41.86 118.48 42.02 118.59 42.33C119.05 43.64 119.46 44.98 119.83 46.32C119.92 46.63 119.73 46.96 119.42 47.05C119.37 47.06 119.32 47.07 119.26 47.07ZM5.45 44.58C5.39 44.58 5.33 44.57 5.27 44.55C4.96 44.45 4.8 44.12 4.9 43.81C5.32 42.49 5.8 41.16 6.31 39.87C6.43 39.57 6.78 39.42 7.08 39.54C7.38 39.67 7.52 40.01 7.4 40.31C6.9 41.58 6.43 42.88 6.01 44.17C5.93 44.42 5.7 44.58 5.45 44.58ZM116.53 39.27C116.31 39.27 116.09 39.14 115.99 38.92C115.46 37.67 114.87 36.43 114.25 35.22C114.1 34.93 114.21 34.57 114.5 34.42C114.79 34.27 115.14 34.38 115.29 34.67C115.93 35.91 116.53 37.18 117.07 38.44C117.2 38.74 117.06 39.09 116.77 39.22C116.69 39.26 116.61 39.27 116.53 39.27ZM8.53 36.9C8.44 36.9 8.35 36.88 8.27 36.84C7.98 36.69 7.86 36.34 8 36.05C8.6 34.8 9.26 33.55 9.94 32.35C10.11 32.07 10.46 31.97 10.75 32.13C11.03 32.3 11.12 32.66 10.96 32.94C10.29 34.12 9.65 35.34 9.06 36.56C8.95 36.78 8.74 36.9 8.53 36.9ZM112.76 31.93C112.56 31.93 112.37 31.83 112.26 31.65C111.55 30.49 110.8 29.34 110.02 28.23C109.83 27.96 109.9 27.59 110.16 27.4C110.43 27.21 110.79 27.28 110.98 27.54C111.78 28.68 112.54 29.85 113.26 31.03C113.43 31.31 113.34 31.68 113.06 31.85C112.97 31.9 112.86 31.93 112.76 31.93ZM12.63 29.72C12.51 29.72 12.4 29.69 12.3 29.62C12.03 29.44 11.96 29.07 12.14 28.8C12.91 27.65 13.72 26.5 14.57 25.41C14.77 25.15 15.14 25.1 15.39 25.3C15.65 25.51 15.7 25.88 15.5 26.13C14.67 27.21 13.87 28.33 13.11 29.46C13 29.63 12.81 29.72 12.63 29.72ZM108.01 25.18C107.84 25.18 107.67 25.11 107.56 24.97C106.7 23.91 105.8 22.87 104.88 21.88C104.66 21.65 104.67 21.27 104.9 21.05C105.14 20.82 105.51 20.84 105.73 21.07C106.67 22.08 107.59 23.14 108.47 24.22C108.67 24.47 108.64 24.84 108.38 25.05C108.28 25.14 108.14 25.18 108.01 25.18ZM17.66 23.18C17.52 23.18 17.38 23.13 17.27 23.03C17.03 22.81 17.01 22.44 17.22 22.2C18.14 21.16 19.11 20.15 20.09 19.18C20.33 18.95 20.7 18.95 20.92 19.19C21.15 19.42 21.14 19.79 20.91 20.02C19.94 20.97 19 21.97 18.1 22.98C17.98 23.11 17.82 23.18 17.66 23.18ZM102.39 19.15C102.25 19.15 102.11 19.1 101.99 18.99C101 18.07 99.97 17.16 98.92 16.31C98.66 16.11 98.63 15.73 98.83 15.48C99.03 15.22 99.4 15.18 99.65 15.39C100.72 16.26 101.78 17.18 102.79 18.13C103.03 18.35 103.04 18.72 102.82 18.96C102.71 19.09 102.55 19.15 102.39 19.15ZM23.54 17.4C23.37 17.4 23.21 17.33 23.09 17.2C22.88 16.95 22.91 16.57 23.16 16.36C24.21 15.46 25.3 14.59 26.41 13.77C26.67 13.57 27.04 13.63 27.23 13.89C27.42 14.15 27.37 14.52 27.11 14.72C26.02 15.53 24.95 16.38 23.92 17.26C23.81 17.36 23.67 17.4 23.54 17.4ZM96 13.95C95.88 13.95 95.77 13.92 95.66 13.85C94.56 13.07 93.41 12.32 92.25 11.61C91.97 11.45 91.88 11.08 92.05 10.8C92.22 10.52 92.58 10.43 92.86 10.6C94.04 11.32 95.21 12.08 96.34 12.88C96.6 13.06 96.67 13.43 96.48 13.7C96.37 13.86 96.19 13.95 96 13.95ZM30.14 12.49C29.95 12.49 29.76 12.4 29.65 12.22C29.47 11.95 29.56 11.58 29.83 11.4C30.99 10.66 32.19 9.95 33.4 9.28C33.69 9.13 34.04 9.24 34.2 9.52C34.35 9.81 34.25 10.17 33.96 10.32C32.78 10.97 31.6 11.67 30.46 12.4C30.36 12.46 30.25 12.49 30.14 12.49ZM88.96 9.69C88.87 9.69 88.78 9.67 88.69 9.62C87.49 9 86.25 8.42 85.01 7.89C84.71 7.76 84.57 7.41 84.7 7.11C84.82 6.81 85.17 6.67 85.47 6.8C86.74 7.34 88 7.94 89.23 8.57C89.52 8.72 89.63 9.07 89.48 9.37C89.38 9.57 89.17 9.69 88.96 9.69ZM37.35 8.55C37.13 8.55 36.92 8.42 36.82 8.2C36.68 7.91 36.81 7.56 37.11 7.42C38.36 6.84 39.65 6.31 40.93 5.82C41.24 5.7 41.58 5.86 41.69 6.17C41.8 6.47 41.65 6.81 41.35 6.93C40.08 7.4 38.82 7.93 37.6 8.5C37.52 8.53 37.43 8.55 37.35 8.55ZM81.4 6.44C81.34 6.44 81.27 6.43 81.21 6.41C79.93 5.97 78.63 5.56 77.32 5.21C77.01 5.12 76.82 4.8 76.91 4.48C76.99 4.17 77.32 3.98 77.63 4.07C78.96 4.43 80.29 4.84 81.59 5.29C81.9 5.4 82.06 5.74 81.95 6.05C81.87 6.29 81.64 6.44 81.4 6.44ZM45.03 5.65C44.78 5.65 44.55 5.48 44.47 5.23C44.38 4.91 44.56 4.58 44.87 4.49C46.19 4.09 47.54 3.74 48.88 3.44C49.2 3.37 49.51 3.57 49.58 3.89C49.65 4.21 49.45 4.52 49.14 4.59C47.82 4.89 46.5 5.24 45.2 5.62C45.14 5.64 45.09 5.65 45.03 5.65ZM73.48 4.29C73.44 4.29 73.4 4.29 73.36 4.28C72.04 4.02 70.69 3.8 69.35 3.63C69.03 3.59 68.8 3.3 68.84 2.97C68.88 2.65 69.17 2.42 69.49 2.46C70.86 2.63 72.24 2.85 73.59 3.12C73.91 3.18 74.11 3.49 74.05 3.81C74 4.1 73.75 4.29 73.48 4.29ZM53.04 3.85C52.76 3.85 52.51 3.64 52.46 3.35C52.42 3.02 52.64 2.72 52.96 2.67C54.32 2.47 55.7 2.3 57.07 2.19C57.4 2.17 57.68 2.41 57.71 2.73C57.73 3.06 57.49 3.35 57.17 3.37C55.82 3.48 54.46 3.64 53.13 3.84C53.1 3.85 53.07 3.85 53.04 3.85ZM65.33 3.27C65.32 3.27 65.31 3.27 65.3 3.27C63.95 3.19 62.58 3.16 61.23 3.18C61.23 3.18 61.23 3.18 61.23 3.18C60.9 3.18 60.64 2.92 60.64 2.6C60.63 2.27 60.89 2 61.22 2C62.6 1.98 63.99 2.01 65.36 2.09C65.69 2.1 65.93 2.38 65.92 2.71C65.9 3.02 65.64 3.27 65.33 3.27ZM61.99 110.77C60.73 110.77 59.46 110.72 58.22 110.63C57.9 110.6 57.65 110.32 57.68 109.99C57.7 109.66 57.97 109.42 58.31 109.45C59.53 109.54 60.76 109.59 61.99 109.59L62.36 109.59C62.36 109.59 62.37 109.59 62.37 109.59C62.69 109.59 62.95 109.85 62.95 110.18C62.96 110.5 62.7 110.77 62.37 110.77L61.99 110.77ZM66.47 110.56C66.17 110.56 65.91 110.33 65.88 110.03C65.85 109.7 66.09 109.41 66.41 109.38C67.76 109.25 69.11 109.07 70.43 108.82C70.75 108.77 71.05 108.98 71.11 109.3C71.17 109.62 70.96 109.93 70.64 109.99C69.29 110.24 67.9 110.43 66.52 110.56C66.5 110.56 66.49 110.56 66.47 110.56ZM54.19 110.13C54.16 110.13 54.13 110.12 54.09 110.12C52.73 109.89 51.36 109.6 50.03 109.25C49.71 109.17 49.52 108.85 49.6 108.53C49.68 108.22 50.01 108.03 50.32 108.11C51.62 108.45 52.95 108.73 54.29 108.95C54.6 109.01 54.82 109.31 54.77 109.63C54.72 109.92 54.47 110.13 54.19 110.13ZM74.54 109.08C74.28 109.08 74.04 108.9 73.97 108.64C73.89 108.33 74.07 108 74.38 107.91C75.68 107.55 76.98 107.13 78.24 106.66C78.54 106.55 78.88 106.7 79 107.01C79.11 107.32 78.95 107.66 78.65 107.77C77.36 108.25 76.03 108.69 74.69 109.06C74.64 109.07 74.59 109.08 74.54 109.08ZM46.24 108.07C46.18 108.07 46.11 108.06 46.05 108.03C44.75 107.57 43.45 107.04 42.19 106.47C41.89 106.33 41.76 105.98 41.9 105.68C42.03 105.39 42.38 105.25 42.68 105.39C43.9 105.95 45.17 106.47 46.44 106.92C46.74 107.03 46.9 107.36 46.8 107.67C46.71 107.92 46.49 108.07 46.24 108.07ZM82.23 106.2C82.01 106.2 81.8 106.07 81.7 105.86C81.56 105.57 81.68 105.21 81.98 105.07C83.19 104.49 84.4 103.85 85.56 103.16C85.84 103 86.2 103.09 86.36 103.37C86.53 103.66 86.43 104.02 86.15 104.18C84.96 104.89 83.72 105.55 82.48 106.14C82.4 106.18 82.31 106.2 82.23 106.2ZM38.77 104.64C38.67 104.64 38.57 104.62 38.48 104.57C37.28 103.88 36.09 103.14 34.95 102.35C34.69 102.16 34.62 101.8 34.8 101.53C34.98 101.26 35.35 101.19 35.62 101.37C36.73 102.14 37.89 102.87 39.06 103.54C39.34 103.7 39.44 104.06 39.28 104.34C39.18 104.53 38.98 104.64 38.77 104.64ZM89.31 102.02C89.12 102.02 88.94 101.93 88.83 101.77C88.64 101.5 88.7 101.13 88.97 100.95C90.07 100.16 91.14 99.32 92.17 98.44C92.42 98.23 92.79 98.26 93 98.51C93.21 98.76 93.18 99.13 92.93 99.34C91.88 100.24 90.77 101.11 89.65 101.91C89.54 101.99 89.42 102.02 89.31 102.02ZM32 99.97C31.87 99.97 31.74 99.92 31.63 99.83C30.56 98.95 29.52 98.01 28.53 97.04C28.3 96.81 28.3 96.43 28.52 96.2C28.75 95.97 29.12 95.96 29.35 96.19C30.31 97.14 31.33 98.06 32.37 98.92C32.62 99.13 32.66 99.5 32.46 99.75C32.34 99.89 32.17 99.97 32 99.97ZM95.57 96.67C95.42 96.67 95.27 96.62 95.15 96.5C94.92 96.27 94.92 95.9 95.15 95.66C96.1 94.7 97.02 93.68 97.88 92.64C98.09 92.39 98.46 92.35 98.71 92.57C98.96 92.77 98.99 93.15 98.78 93.4C97.9 94.47 96.95 95.51 95.98 96.5C95.87 96.61 95.72 96.67 95.57 96.67ZM26.13 94.19C25.97 94.19 25.8 94.12 25.69 93.98C24.79 92.93 23.92 91.82 23.11 90.69C22.92 90.43 22.98 90.06 23.24 89.86C23.51 89.67 23.87 89.73 24.06 90C24.85 91.1 25.7 92.18 26.58 93.21C26.79 93.46 26.76 93.83 26.51 94.04C26.4 94.14 26.27 94.19 26.13 94.19ZM100.82 90.32C100.71 90.32 100.59 90.29 100.49 90.21C100.22 90.03 100.16 89.66 100.34 89.39C101.11 88.28 101.84 87.11 102.51 85.94C102.68 85.65 103.03 85.56 103.32 85.72C103.6 85.88 103.69 86.24 103.53 86.53C102.84 87.73 102.09 88.92 101.3 90.07C101.19 90.23 101.01 90.32 100.82 90.32ZM21.34 87.48C21.14 87.48 20.94 87.37 20.83 87.19C20.12 85.99 19.46 84.75 18.86 83.5C18.72 83.21 18.84 82.85 19.13 82.71C19.42 82.57 19.77 82.69 19.92 82.98C20.5 84.21 21.15 85.42 21.84 86.58C22 86.86 21.91 87.23 21.63 87.39C21.54 87.45 21.44 87.48 21.34 87.48ZM104.91 83.15C104.83 83.15 104.75 83.13 104.67 83.09C104.37 82.95 104.24 82.6 104.38 82.31C104.95 81.08 105.47 79.8 105.93 78.52C106.04 78.22 106.37 78.06 106.68 78.17C106.98 78.28 107.14 78.62 107.03 78.93C106.56 80.24 106.03 81.54 105.45 82.8C105.35 83.02 105.13 83.15 104.91 83.15ZM17.76 80.03C17.52 80.03 17.3 79.89 17.21 79.65C16.72 78.35 16.28 77.01 15.91 75.67C15.82 75.36 16 75.03 16.31 74.94C16.62 74.86 16.95 75.04 17.04 75.35C17.4 76.66 17.83 77.96 18.31 79.23C18.43 79.54 18.27 79.88 17.97 79.99C17.9 80.02 17.83 80.03 17.76 80.03ZM107.71 75.37C107.66 75.37 107.61 75.36 107.55 75.35C107.24 75.26 107.06 74.94 107.14 74.62C107.48 73.32 107.78 71.97 108.01 70.63C108.06 70.31 108.36 70.1 108.69 70.15C109.01 70.21 109.22 70.51 109.16 70.83C108.93 72.21 108.63 73.59 108.27 74.93C108.2 75.19 107.97 75.37 107.71 75.37ZM15.53 72.07C15.25 72.07 15 71.88 14.95 71.59C14.69 70.23 14.49 68.84 14.35 67.45C14.32 67.12 14.55 66.83 14.87 66.8C15.19 66.76 15.48 67 15.52 67.33C15.66 68.68 15.85 70.04 16.1 71.37C16.16 71.69 15.95 72 15.64 72.06C15.6 72.07 15.56 72.07 15.53 72.07ZM109.12 67.22C109.1 67.22 109.08 67.22 109.06 67.22C108.74 67.19 108.5 66.9 108.53 66.58C108.64 65.23 108.7 63.86 108.7 62.49C108.7 61.99 108.69 61.49 108.68 60.99C108.67 60.66 108.92 60.39 109.25 60.38C109.58 60.36 109.84 60.62 109.85 60.95C109.87 61.46 109.88 61.98 109.88 62.49C109.88 63.89 109.82 65.3 109.7 66.68C109.67 66.99 109.42 67.22 109.12 67.22ZM14.69 63.85C14.37 63.85 14.11 63.59 14.11 63.27C14.1 63.01 14.1 62.75 14.1 62.49C14.1 61.36 14.14 60.21 14.22 59.08C14.24 58.75 14.52 58.51 14.84 58.53C15.17 58.55 15.41 58.83 15.39 59.16C15.31 60.26 15.27 61.39 15.27 62.49C15.27 62.74 15.28 63 15.28 63.25C15.29 63.57 15.03 63.84 14.7 63.85C14.7 63.85 14.7 63.85 14.69 63.85ZM108.96 57.43C108.67 57.43 108.41 57.21 108.38 56.91C108.22 55.56 108 54.2 107.73 52.88C107.66 52.56 107.87 52.24 108.18 52.18C108.5 52.11 108.81 52.31 108.88 52.63C109.16 53.99 109.38 55.38 109.54 56.77C109.58 57.1 109.35 57.39 109.03 57.43C109.01 57.43 108.98 57.43 108.96 57.43ZM15.27 55.6C15.24 55.6 15.21 55.6 15.17 55.59C14.85 55.54 14.64 55.24 14.69 54.91C14.9 53.54 15.18 52.16 15.51 50.81C15.59 50.49 15.91 50.3 16.22 50.37C16.54 50.45 16.73 50.77 16.65 51.09C16.33 52.41 16.06 53.76 15.85 55.1C15.8 55.39 15.55 55.6 15.27 55.6ZM107.29 49.33C107.04 49.33 106.81 49.17 106.73 48.91C106.34 47.61 105.89 46.31 105.4 45.05C105.27 44.75 105.42 44.41 105.72 44.28C106.02 44.16 106.36 44.31 106.49 44.61C107 45.91 107.46 47.24 107.86 48.57C107.95 48.88 107.77 49.22 107.46 49.31C107.41 49.33 107.35 49.33 107.29 49.33ZM17.25 47.57C17.18 47.57 17.12 47.56 17.06 47.54C16.75 47.43 16.59 47.1 16.69 46.79C17.14 45.47 17.65 44.16 18.21 42.89C18.35 42.59 18.69 42.45 18.99 42.59C19.29 42.72 19.42 43.07 19.29 43.37C18.74 44.61 18.24 45.89 17.8 47.17C17.72 47.42 17.49 47.57 17.25 47.57ZM104.26 41.65C104.04 41.65 103.83 41.53 103.73 41.33C103.13 40.12 102.46 38.92 101.75 37.76C101.58 37.48 101.67 37.12 101.94 36.95C102.22 36.78 102.58 36.86 102.75 37.14C103.48 38.32 104.16 39.55 104.78 40.79C104.93 41.09 104.81 41.44 104.52 41.59C104.43 41.63 104.34 41.65 104.26 41.65ZM20.58 40.01C20.49 40.01 20.39 39.99 20.3 39.94C20.01 39.78 19.91 39.42 20.07 39.13C20.74 37.92 21.47 36.71 22.24 35.56C22.42 35.29 22.79 35.21 23.05 35.4C23.32 35.58 23.39 35.95 23.21 36.22C22.46 37.35 21.75 38.52 21.1 39.71C20.99 39.9 20.79 40.01 20.58 40.01ZM99.94 34.62C99.76 34.62 99.59 34.54 99.47 34.38C98.67 33.29 97.81 32.23 96.91 31.21C96.69 30.97 96.72 30.59 96.96 30.37C97.2 30.16 97.57 30.18 97.79 30.42C98.71 31.47 99.59 32.56 100.41 33.67C100.61 33.94 100.55 34.31 100.29 34.5C100.19 34.58 100.06 34.62 99.94 34.62ZM25.17 33.15C25.04 33.15 24.91 33.1 24.8 33.02C24.55 32.81 24.51 32.44 24.71 32.18C25.58 31.1 26.5 30.05 27.46 29.04C27.68 28.8 28.05 28.8 28.29 29.02C28.52 29.25 28.53 29.62 28.3 29.86C27.37 30.84 26.47 31.87 25.62 32.93C25.51 33.07 25.34 33.15 25.17 33.15ZM94.49 28.44C94.34 28.44 94.2 28.38 94.09 28.27C93.11 27.34 92.08 26.44 91.02 25.59C90.77 25.39 90.73 25.02 90.93 24.76C91.13 24.51 91.5 24.46 91.75 24.67C92.83 25.53 93.89 26.46 94.89 27.41C95.13 27.64 95.14 28.01 94.92 28.25C94.8 28.37 94.65 28.44 94.49 28.44ZM30.85 27.18C30.69 27.18 30.53 27.11 30.41 26.98C30.2 26.74 30.22 26.36 30.47 26.15C31.5 25.23 32.6 24.35 33.71 23.53C33.97 23.33 34.34 23.39 34.53 23.65C34.72 23.92 34.66 24.29 34.4 24.48C33.32 25.28 32.25 26.14 31.24 27.04C31.13 27.14 30.99 27.18 30.85 27.18ZM88.06 23.29C87.95 23.29 87.84 23.26 87.74 23.19C86.62 22.44 85.45 21.73 84.26 21.08C83.98 20.93 83.87 20.57 84.03 20.28C84.18 20 84.54 19.89 84.82 20.05C86.04 20.71 87.24 21.44 88.39 22.2C88.66 22.39 88.73 22.75 88.55 23.03C88.44 23.2 88.25 23.29 88.06 23.29ZM37.47 22.29C37.27 22.29 37.08 22.19 36.97 22.01C36.8 21.73 36.89 21.37 37.17 21.2C38.35 20.47 39.57 19.8 40.81 19.18C41.1 19.03 41.45 19.15 41.59 19.45C41.74 19.74 41.62 20.1 41.33 20.24C40.12 20.84 38.93 21.5 37.78 22.21C37.68 22.27 37.57 22.29 37.47 22.29ZM80.85 19.34C80.77 19.34 80.69 19.32 80.62 19.29C79.38 18.75 78.11 18.25 76.83 17.82C76.52 17.72 76.36 17.38 76.46 17.07C76.56 16.76 76.9 16.6 77.2 16.7C78.52 17.14 79.82 17.65 81.09 18.2C81.38 18.34 81.52 18.68 81.39 18.98C81.29 19.21 81.08 19.34 80.85 19.34ZM44.82 18.63C44.59 18.63 44.37 18.49 44.28 18.26C44.16 17.95 44.31 17.61 44.61 17.49C45.9 16.98 47.22 16.53 48.55 16.14C48.86 16.05 49.18 16.23 49.28 16.54C49.37 16.86 49.19 17.19 48.88 17.28C47.59 17.66 46.29 18.1 45.04 18.59C44.97 18.62 44.9 18.63 44.82 18.63ZM73.07 16.71C73.03 16.71 72.98 16.71 72.93 16.7C71.63 16.38 70.29 16.12 68.95 15.92C68.63 15.87 68.41 15.57 68.46 15.24C68.51 14.92 68.81 14.7 69.13 14.75C70.49 14.95 71.87 15.22 73.21 15.55C73.52 15.62 73.72 15.94 73.64 16.26C73.58 16.53 73.34 16.71 73.07 16.71ZM52.7 16.32C52.42 16.32 52.18 16.12 52.12 15.84C52.06 15.52 52.27 15.21 52.58 15.14C53.94 14.87 55.32 14.66 56.69 14.5C57.01 14.47 57.31 14.7 57.34 15.03C57.38 15.35 57.14 15.65 56.82 15.68C55.48 15.83 54.13 16.04 52.81 16.3C52.77 16.31 52.74 16.32 52.7 16.32ZM64.96 15.49C64.95 15.49 64.93 15.49 64.92 15.49C63.58 15.4 62.21 15.38 60.87 15.41C60.55 15.41 60.27 15.16 60.27 14.83C60.26 14.51 60.52 14.23 60.84 14.23C62.22 14.19 63.62 14.22 64.99 14.31C65.32 14.33 65.56 14.61 65.54 14.93C65.52 15.25 65.27 15.49 64.96 15.49ZM60.22 98.81C60.21 98.81 60.2 98.81 60.19 98.81C58.8 98.74 57.41 98.59 56.04 98.36C55.73 98.31 55.51 98 55.56 97.68C55.61 97.36 55.91 97.14 56.24 97.19C57.56 97.42 58.91 97.56 60.25 97.63C60.57 97.64 60.82 97.92 60.81 98.25C60.79 98.56 60.53 98.81 60.22 98.81ZM64.33 98.78C64.02 98.78 63.76 98.54 63.74 98.22C63.72 97.9 63.97 97.62 64.29 97.6C65.63 97.51 66.98 97.34 68.3 97.1C68.62 97.04 68.92 97.25 68.98 97.57C69.04 97.89 68.82 98.2 68.51 98.26C67.15 98.51 65.75 98.68 64.37 98.78C64.35 98.78 64.34 98.78 64.33 98.78ZM52.14 97.46C52.08 97.46 52.03 97.45 51.97 97.43C50.64 97.05 49.32 96.57 48.04 96.03C47.74 95.91 47.6 95.56 47.72 95.26C47.85 94.96 48.19 94.81 48.49 94.94C49.73 95.47 51.01 95.92 52.3 96.3C52.61 96.39 52.79 96.71 52.7 97.03C52.63 97.29 52.39 97.46 52.14 97.46ZM72.39 97.29C72.14 97.29 71.91 97.13 71.83 96.87C71.73 96.56 71.91 96.23 72.22 96.13C73.5 95.74 74.77 95.26 76 94.72C76.3 94.59 76.64 94.72 76.78 95.02C76.91 95.32 76.77 95.67 76.47 95.8C75.2 96.36 73.89 96.86 72.56 97.27C72.5 97.28 72.45 97.29 72.39 97.29ZM44.58 94.26C44.48 94.26 44.38 94.23 44.29 94.18C43.08 93.49 41.9 92.73 40.78 91.9C40.51 91.71 40.46 91.34 40.65 91.08C40.84 90.81 41.21 90.75 41.47 90.95C42.55 91.74 43.7 92.49 44.86 93.15C45.15 93.31 45.25 93.67 45.09 93.96C44.98 94.15 44.78 94.26 44.58 94.26ZM79.89 93.97C79.69 93.97 79.5 93.87 79.39 93.68C79.22 93.4 79.32 93.03 79.6 92.87C80.75 92.19 81.88 91.43 82.96 90.61C83.22 90.42 83.58 90.47 83.78 90.73C83.97 90.99 83.92 91.36 83.66 91.56C82.55 92.4 81.38 93.19 80.19 93.89C80.1 93.95 79.99 93.97 79.89 93.97ZM37.95 89.39C37.81 89.39 37.66 89.34 37.55 89.23C36.53 88.29 35.55 87.27 34.65 86.21C34.44 85.96 34.47 85.59 34.71 85.38C34.96 85.16 35.33 85.19 35.54 85.44C36.41 86.46 37.36 87.45 38.35 88.36C38.58 88.59 38.6 88.96 38.38 89.2C38.26 89.33 38.11 89.39 37.95 89.39ZM86.44 89C86.29 89 86.13 88.94 86.01 88.82C85.79 88.58 85.8 88.21 86.04 87.98C87.01 87.05 87.94 86.05 88.8 85.01C89 84.76 89.37 84.73 89.62 84.94C89.87 85.15 89.91 85.52 89.7 85.77C88.81 86.84 87.85 87.88 86.84 88.84C86.73 88.95 86.59 89 86.44 89ZM32.6 83.13C32.41 83.13 32.23 83.04 32.11 82.87C31.34 81.71 30.62 80.5 29.98 79.26C29.83 78.97 29.94 78.61 30.23 78.46C30.52 78.31 30.87 78.42 31.02 78.71C31.64 79.91 32.33 81.08 33.09 82.21C33.27 82.48 33.2 82.85 32.93 83.03C32.83 83.1 32.71 83.13 32.6 83.13ZM91.69 82.66C91.58 82.66 91.47 82.62 91.37 82.56C91.1 82.38 91.02 82.01 91.2 81.74C91.94 80.61 92.61 79.42 93.21 78.21C93.36 77.92 93.71 77.8 94 77.95C94.29 78.09 94.41 78.45 94.26 78.74C93.64 79.99 92.94 81.22 92.18 82.39C92.07 82.56 91.88 82.66 91.69 82.66ZM28.82 75.8C28.58 75.8 28.36 75.66 28.27 75.42C27.78 74.12 27.35 72.77 27.01 71.41C26.93 71.09 27.12 70.77 27.44 70.69C27.75 70.61 28.07 70.8 28.15 71.12C28.48 72.43 28.89 73.74 29.37 75C29.48 75.3 29.33 75.65 29.03 75.76C28.96 75.79 28.89 75.8 28.82 75.8ZM95.36 75.26C95.29 75.26 95.22 75.25 95.16 75.23C94.85 75.12 94.7 74.78 94.81 74.47C95.26 73.2 95.65 71.88 95.96 70.57C96.03 70.25 96.35 70.05 96.66 70.13C96.98 70.2 97.17 70.52 97.1 70.84C96.78 72.2 96.38 73.56 95.91 74.87C95.82 75.11 95.6 75.26 95.36 75.26ZM26.81 67.79C26.52 67.79 26.27 67.57 26.23 67.27C26.05 65.89 25.95 64.48 25.93 63.08C25.92 62.75 26.18 62.48 26.5 62.48C26.51 62.48 26.51 62.48 26.51 62.48C26.83 62.48 27.1 62.74 27.1 63.06C27.12 64.42 27.22 65.78 27.39 67.12C27.44 67.44 27.21 67.74 26.89 67.78C26.86 67.79 26.84 67.79 26.81 67.79ZM97.23 67.22C97.21 67.22 97.19 67.21 97.17 67.21C96.85 67.18 96.61 66.88 96.65 66.56C96.8 65.21 96.88 63.85 96.88 62.49C96.88 62.11 96.87 61.73 96.86 61.36C96.85 61.03 97.11 60.76 97.43 60.75C97.74 60.73 98.03 60.99 98.04 61.32C98.05 61.71 98.06 62.1 98.05 62.49C98.05 63.89 97.97 65.31 97.82 66.69C97.78 66.99 97.53 67.22 97.23 67.22ZM26.68 59.53C26.66 59.53 26.64 59.53 26.62 59.52C26.3 59.49 26.07 59.2 26.1 58.88C26.23 57.48 26.45 56.08 26.75 54.72C26.82 54.4 27.13 54.2 27.45 54.27C27.76 54.34 27.96 54.65 27.9 54.97C27.61 56.29 27.4 57.64 27.27 58.99C27.24 59.3 26.98 59.53 26.68 59.53ZM97.08 57.81C96.8 57.81 96.55 57.6 96.5 57.3C96.31 55.96 96.03 54.62 95.68 53.32C95.6 53 95.78 52.68 96.1 52.59C96.41 52.51 96.73 52.69 96.82 53.01C97.18 54.36 97.46 55.75 97.66 57.13C97.71 57.45 97.49 57.75 97.17 57.8C97.14 57.8 97.11 57.81 97.08 57.81ZM28.43 51.45C28.36 51.45 28.3 51.44 28.24 51.42C27.93 51.31 27.77 50.98 27.87 50.67C28.32 49.35 28.86 48.04 29.46 46.77C29.6 46.48 29.95 46.35 30.24 46.5C30.53 46.64 30.66 46.99 30.52 47.29C29.93 48.51 29.42 49.78 28.98 51.05C28.9 51.3 28.67 51.45 28.43 51.45ZM94.95 49.83C94.72 49.83 94.5 49.69 94.41 49.46C93.91 48.2 93.33 46.96 92.69 45.77C92.54 45.49 92.65 45.13 92.93 44.97C93.22 44.81 93.57 44.92 93.73 45.21C94.39 46.44 94.98 47.72 95.5 49.02C95.62 49.32 95.47 49.67 95.17 49.79C95.1 49.82 95.02 49.83 94.95 49.83ZM31.98 44C31.87 44 31.76 43.97 31.66 43.91C31.39 43.73 31.31 43.37 31.48 43.09C32.22 41.91 33.04 40.76 33.91 39.67C34.11 39.42 34.48 39.38 34.74 39.58C34.99 39.79 35.03 40.16 34.82 40.41C33.98 41.47 33.19 42.58 32.47 43.72C32.36 43.9 32.17 44 31.98 44ZM91.05 42.56C90.87 42.56 90.69 42.48 90.57 42.31C89.8 41.2 88.96 40.13 88.07 39.12C87.85 38.88 87.87 38.5 88.11 38.29C88.36 38.07 88.73 38.09 88.94 38.33C89.86 39.38 90.74 40.49 91.53 41.63C91.72 41.9 91.65 42.27 91.39 42.46C91.29 42.53 91.17 42.56 91.05 42.56ZM37.12 37.57C36.97 37.57 36.82 37.51 36.71 37.39C36.48 37.16 36.48 36.78 36.71 36.55C37.7 35.57 38.76 34.64 39.85 33.78C40.11 33.58 40.48 33.63 40.68 33.89C40.88 34.14 40.83 34.52 40.57 34.72C39.52 35.55 38.49 36.45 37.54 37.4C37.42 37.51 37.27 37.57 37.12 37.57ZM85.6 36.39C85.47 36.39 85.33 36.34 85.21 36.24C84.21 35.34 83.15 34.49 82.05 33.71C81.79 33.52 81.72 33.15 81.91 32.88C82.1 32.62 82.46 32.55 82.73 32.74C83.86 33.54 84.96 34.43 86 35.36C86.24 35.57 86.26 35.95 86.04 36.19C85.93 36.32 85.77 36.39 85.6 36.39ZM43.59 32.49C43.39 32.49 43.2 32.39 43.09 32.21C42.92 31.93 43.01 31.56 43.29 31.4C44.47 30.67 45.71 30.01 46.97 29.42C47.27 29.29 47.62 29.42 47.75 29.72C47.89 30.01 47.76 30.36 47.46 30.5C46.24 31.06 45.04 31.7 43.9 32.41C43.8 32.47 43.7 32.49 43.59 32.49ZM78.9 31.63C78.81 31.63 78.71 31.61 78.62 31.56C77.44 30.91 76.21 30.33 74.97 29.83C74.66 29.71 74.52 29.36 74.64 29.06C74.76 28.75 75.1 28.61 75.4 28.73C76.69 29.25 77.96 29.85 79.18 30.52C79.47 30.68 79.57 31.04 79.42 31.32C79.31 31.52 79.11 31.63 78.9 31.63ZM51.04 29.05C50.79 29.05 50.56 28.89 50.48 28.64C50.38 28.33 50.55 28 50.86 27.9C52.18 27.47 53.54 27.11 54.9 26.83C55.22 26.77 55.53 26.98 55.59 27.3C55.65 27.62 55.45 27.93 55.13 28C53.81 28.26 52.5 28.61 51.22 29.02C51.16 29.04 51.1 29.05 51.04 29.05ZM71.29 28.56C71.24 28.56 71.19 28.55 71.14 28.54C69.84 28.18 68.51 27.9 67.18 27.7C66.86 27.65 66.64 27.35 66.69 27.03C66.74 26.71 67.04 26.48 67.36 26.53C68.73 26.74 70.11 27.03 71.44 27.39C71.76 27.48 71.94 27.8 71.86 28.12C71.78 28.38 71.55 28.56 71.29 28.56ZM59.08 27.43C58.78 27.43 58.52 27.2 58.49 26.89C58.47 26.56 58.71 26.28 59.03 26.25C60.01 26.17 61 26.13 61.98 26.13C62.4 26.12 62.8 26.14 63.2 26.15C63.53 26.16 63.78 26.44 63.77 26.76C63.76 27.09 63.49 27.35 63.16 27.33C62.77 27.32 62.39 27.33 61.98 27.32C61.03 27.32 60.07 27.35 59.13 27.43C59.11 27.43 59.09 27.43 59.08 27.43Z" />
</svg>