<svg version="1.2" baseProfile="tiny-ps" xmlns="http://www.w3.org/2000/svg" viewBox="0 0 62 62" width="62" height="62">
	<title>Icon</title>
	<style>
		tspan { white-space:pre }
		.shp0 { fill: #ffb534 } 
		.shp1 { fill: #ffffff } 
	</style>
	<g id="Icon">
		<path id="Icon_bg" class="shp0" d="M1 2L61 2L61 62L1 62L1 2Z" />
		<path id="icon" class="shp1" d="M48.2 30.6L47.16 26.5C47.45 26.44 47.66 26.2 47.66 25.9L47.66 25.24C47.66 23.81 46.48 22.64 45.03 22.64L40.31 22.64L40.31 21.28C40.31 20.57 39.73 20 39.02 20L14.96 20C14.25 20 13.67 20.57 13.67 21.28L13.67 32.5C13.67 32.84 13.95 33.12 14.3 33.12C14.64 33.12 14.92 32.84 14.92 32.5L14.92 21.28C14.92 21.25 14.94 21.24 14.96 21.24L39.02 21.24C39.04 21.24 39.06 21.25 39.06 21.28L39.06 32.5C39.06 32.84 39.34 33.12 39.68 33.12C40.03 33.12 40.31 32.84 40.31 32.5L40.31 31.8L47.7 31.8C47.7 31.8 47.7 31.8 47.7 31.8C47.7 31.8 47.7 31.8 47.7 31.8C48.61 31.8 49.38 32.39 49.65 33.2L47.7 33.2C47.35 33.2 47.07 33.48 47.07 33.82L47.07 35.14C47.07 36.21 47.95 37.08 49.04 37.08L49.75 37.08L49.75 39.8L48.11 39.8C47.57 38.27 46.09 37.16 44.36 37.16C42.63 37.16 41.15 38.27 40.61 39.8L40.31 39.8L40.31 35.14C40.31 34.8 40.03 34.52 39.68 34.52C39.34 34.52 39.06 34.8 39.06 35.14L39.06 39.8L26.06 39.8C25.52 38.27 24.05 37.16 22.31 37.16C20.58 37.16 19.1 38.27 18.56 39.8L14.96 39.8C14.94 39.8 14.92 39.78 14.92 39.76L14.92 38.4L17.64 38.4C17.98 38.4 18.26 38.12 18.26 37.78C18.26 37.44 17.98 37.16 17.64 37.16L11.62 37.16C11.28 37.16 11 37.44 11 37.78C11 38.12 11.28 38.4 11.62 38.4L13.67 38.4L13.67 39.76C13.67 40.47 14.25 41.04 14.96 41.04L18.35 41.04C18.35 41.05 18.35 41.07 18.35 41.08C18.35 43.24 20.13 45 22.31 45C24.5 45 26.28 43.24 26.28 41.08C26.28 41.07 26.28 41.05 26.28 41.04L40.39 41.04C40.39 41.05 40.39 41.07 40.39 41.08C40.39 43.24 42.17 45 44.36 45C46.55 45 48.33 43.24 48.33 41.08C48.33 41.07 48.33 41.05 48.33 41.04L50.37 41.04C50.72 41.04 51 40.76 51 40.42L51 33.82C51 32.19 49.78 30.84 48.2 30.6ZM40.31 26.52L45.88 26.52L46.9 30.56L40.31 30.56L40.31 26.52ZM45.03 23.88C45.79 23.88 46.41 24.49 46.41 25.24L46.41 25.28L40.31 25.28L40.31 23.88L45.03 23.88ZM22.31 43.76C20.82 43.76 19.6 42.56 19.6 41.08C19.6 39.6 20.82 38.4 22.31 38.4C23.81 38.4 25.03 39.6 25.03 41.08C25.03 42.56 23.81 43.76 22.31 43.76ZM44.36 43.76C42.86 43.76 41.65 42.56 41.65 41.08C41.65 39.6 42.86 38.4 44.36 38.4C45.86 38.4 47.07 39.6 47.07 41.08C47.07 42.56 45.86 43.76 44.36 43.76ZM49.04 35.84C48.65 35.84 48.33 35.53 48.33 35.14L48.33 34.44L49.75 34.44L49.75 35.84L49.04 35.84ZM22.31 39.8C21.6 39.8 21.02 40.38 21.02 41.08C21.02 41.79 21.6 42.36 22.31 42.36C23.03 42.36 23.61 41.79 23.61 41.08C23.61 40.38 23.03 39.8 22.31 39.8ZM44.36 39.8C43.65 39.8 43.07 40.38 43.07 41.08C43.07 41.79 43.65 42.36 44.36 42.36C45.07 42.36 45.65 41.79 45.65 41.08C45.65 40.38 45.07 39.8 44.36 39.8ZM27.03 37.78C27.03 38.12 27.31 38.4 27.66 38.4L37.01 38.4C37.36 38.4 37.64 38.12 37.64 37.78C37.64 37.44 37.36 37.16 37.01 37.16L27.66 37.16C27.31 37.16 27.03 37.44 27.03 37.78ZM12.96 35.76L20.98 35.76C21.32 35.76 21.6 35.48 21.6 35.14C21.6 34.8 21.32 34.52 20.98 34.52L12.96 34.52C12.61 34.52 12.33 34.8 12.33 35.14C12.33 35.48 12.61 35.76 12.96 35.76ZM31.89 26.12L26.32 31.62L23.42 28.76C23.18 28.52 22.78 28.52 22.54 28.76C22.29 29 22.29 29.39 22.54 29.64L25.88 32.94C26 33.06 26.16 33.12 26.32 33.12C26.48 33.12 26.64 33.06 26.76 32.94L32.78 27C33.02 26.75 33.02 26.36 32.78 26.12C32.53 25.88 32.14 25.88 31.89 26.12Z" />
	</g>
</svg>