<svg version="1.2" baseProfile="tiny-ps" xmlns="http://www.w3.org/2000/svg" viewBox="0 0 62 62" width="62" height="62">
	<title>Icon</title>
	<style>
		tspan { white-space:pre }
		.shp0 { fill: #34c3ff } 
		.shp1 { fill: #ffffff } 
	</style>
	<g id="Icon">
		<path id="Icon_bg" class="shp0" d="M1 1L61 1L61 61L1 61L1 1Z" />
		<path id="Icon" class="shp1" d="M43 21.44L41.55 21.33L41.43 23.02C39.1 20.47 35.83 19 32.36 19C25.54 19 20 24.61 20 31.5C20 38.39 25.54 44 32.36 44C36.48 44 40.32 41.93 42.62 38.45L41.42 37.63C39.38 40.7 35.99 42.53 32.36 42.53C26.35 42.53 21.45 37.58 21.45 31.5C21.45 25.42 26.35 20.47 32.36 20.47C35.45 20.47 38.36 21.79 40.42 24.08L38.56 23.94L38.46 25.41L42.69 25.72L43 21.44ZM24.07 31.78C24.21 31.85 24.62 32.02 25.01 32.02C25.37 32.02 25.62 31.91 25.62 31.65C25.62 31.39 25.32 31.24 25 31.24L24.54 31.24L24.54 30.51L24.98 30.51C25.22 30.51 25.53 30.43 25.53 30.2C25.53 30.03 25.36 29.91 25.03 29.91C24.68 29.91 24.31 30.06 24.17 30.14L23.95 29.4C24.2 29.24 24.7 29.1 25.26 29.1C26.08 29.1 26.59 29.49 26.59 30.03C26.59 30.41 26.37 30.71 25.89 30.87L25.89 30.88C26.33 30.93 26.71 31.26 26.71 31.72C26.71 32.42 26.05 32.83 25.1 32.83C24.55 32.83 24.09 32.7 23.85 32.55L24.07 31.78ZM28.68 32.83C27.62 32.83 27.19 31.95 27.19 30.97C27.19 29.99 27.62 29.1 28.69 29.1C29.76 29.1 30.19 29.99 30.19 30.97C30.19 31.95 29.76 32.83 28.69 32.83L28.68 32.83ZM28.7 32.08C28.97 32.08 29.16 31.73 29.16 30.97C29.16 30.2 28.97 29.86 28.69 29.86C28.41 29.86 28.22 30.2 28.22 30.97C28.22 31.73 28.41 32.08 28.69 32.08L28.7 32.08ZM31.88 29.08C32.23 29.03 32.7 29 33.18 29C33.95 29 34.43 29.12 34.84 29.38C35.27 29.65 35.57 30.11 35.57 30.79C35.57 31.57 35.25 32.04 34.89 32.31C34.44 32.66 33.75 32.81 32.97 32.81C32.43 32.81 32.08 32.78 31.88 32.75L31.88 29.08ZM32.91 32C32.97 32.01 33.08 32.01 33.15 32.01C33.91 32.02 34.46 31.66 34.46 30.85C34.46 30.1 33.94 29.79 33.27 29.79C33.08 29.79 32.97 29.81 32.91 29.82L32.91 32ZM38.64 32.09C38.64 32.38 38.65 32.65 38.68 32.77L37.75 32.77L37.7 32.54L37.67 32.54C37.48 32.76 37.19 32.83 36.88 32.83C36.29 32.83 35.94 32.42 35.94 31.98C35.94 31.24 36.59 30.91 37.61 30.91L37.61 30.89C37.61 30.79 37.54 30.67 37.14 30.67C36.84 30.67 36.5 30.78 36.32 30.88L36.14 30.23C36.31 30.14 36.71 29.97 37.32 29.97C38.24 29.97 38.64 30.45 38.64 31.18L38.64 32.09ZM37.64 31.54C37.19 31.54 36.97 31.65 36.97 31.88C36.97 32.03 37.07 32.12 37.26 32.12C37.42 32.12 37.59 32 37.63 31.84C37.64 31.79 37.64 31.74 37.64 31.69L37.64 31.54ZM40.08 30.04L40.44 31.22C40.48 31.38 40.54 31.6 40.58 31.73L40.6 31.73C40.64 31.59 40.68 31.37 40.71 31.22L40.98 30.04L42.11 30.04L41.54 31.6C41.04 32.98 40.75 33.37 40.45 33.62C40.12 33.89 39.77 33.98 39.48 34L39.29 33.12C39.38 33.12 39.5 33.09 39.62 33.05C39.76 33 39.91 32.88 39.97 32.8C40.01 32.76 40.03 32.71 40.03 32.67C40.03 32.64 40.02 32.6 39.99 32.51L38.93 30.04L40.08 30.04Z" />
	</g>
</svg>