<svg version="1.2" baseProfile="tiny-ps" xmlns="http://www.w3.org/2000/svg" viewBox="0 0 62 62" width="62" height="62">
	<title>Icon</title>
	<style>
		tspan { white-space:pre }
		.shp0 { fill: #fe3e57 } 
		.shp1 { fill: #ffffff } 
	</style>
	<g id="Icon">
		<path id="Icon_bg" class="shp0" d="M1 1L61 1L61 61L1 61L1 1Z" />
		<path id="Icon" class="shp1" d="M43.38 30.68C42.99 30.33 42.47 30.11 41.93 30.08C41.33 30.05 40.76 30.26 40.33 30.68L37.44 33.47C37.39 33.37 37.32 33.28 37.25 33.2C36.89 32.78 36.37 32.56 35.78 32.56L31.74 32.56C30.97 32.56 30.23 32.46 29.53 32.27C27.69 31.77 25.93 32.14 24.45 33.32C23.84 33.8 23.4 34.32 23.13 34.71L22.4 34.02C22.31 33.93 22.18 33.88 22.04 33.88C22.04 33.88 22.04 33.88 22.04 33.88C21.9 33.88 21.77 33.93 21.67 34.03L18.15 37.6C18.05 37.7 18 37.83 18 37.96C18.01 38.09 18.06 38.22 18.16 38.31L24.13 43.86C24.23 43.95 24.35 44 24.48 44C24.61 44 24.75 43.95 24.85 43.85L28.34 40.35C28.43 40.25 28.49 40.12 28.49 39.99C28.48 39.85 28.43 39.73 28.33 39.64L28.03 39.35L28.72 39.27C29.14 39.22 29.57 39.2 30 39.2L36.15 39.2C37.15 39.2 38 38.98 38.68 38.56C38.68 38.56 38.69 38.56 38.69 38.55C38.94 38.39 39.16 38.19 39.35 37.97L43.49 33.21C44.2 32.39 44.16 31.38 43.38 30.68L43.38 30.68ZM24.47 42.8L19.24 37.94L22.05 35.08L27.25 40.01L24.47 42.8ZM42.72 32.56L38.57 37.33C38.44 37.48 38.28 37.61 38.12 37.73C37.61 38.04 36.95 38.2 36.15 38.2L29.99 38.2C29.53 38.2 29.06 38.23 28.61 38.28L27.07 38.45L23.87 35.41C24.09 35.09 24.5 34.57 25.09 34.09C26.33 33.11 27.73 32.82 29.25 33.23C30.05 33.45 30.88 33.56 31.74 33.56L35.78 33.56C36.51 33.56 36.7 34.17 36.7 34.53C36.7 34.8 36.62 35.05 36.47 35.23C36.3 35.42 36.07 35.51 35.77 35.51L32.25 35.51C31.96 35.51 31.73 35.74 31.73 36.01C31.73 36.29 31.96 36.51 32.25 36.51L35.77 36.51C36.36 36.51 36.89 36.28 37.24 35.87C37.54 35.53 37.71 35.08 37.73 34.6L41.06 31.38C41.53 30.92 42.27 31.04 42.69 31.41C42.91 31.6 43.19 32.01 42.72 32.56L42.72 32.56ZM42.72 32.56M30.65 35.88C30.59 35.61 30.31 35.44 30.04 35.51C29.76 35.57 29.59 35.84 29.66 36.11L29.66 36.13C29.72 36.36 29.93 36.51 30.16 36.51C30.2 36.51 30.24 36.51 30.27 36.5C30.55 36.44 30.72 36.17 30.66 35.9L30.65 35.88ZM30.65 35.88M21.46 29.53L26.44 29.53C26.71 29.53 26.96 29.45 27.17 29.3C27.37 29.45 27.62 29.53 27.9 29.53L32.88 29.53C33.15 29.53 33.4 29.45 33.61 29.3C33.81 29.45 34.06 29.53 34.33 29.53L39.31 29.53C40 29.53 40.55 28.99 40.55 28.32L40.55 26.06C40.55 25.04 39.97 24.15 39.09 23.71C39.52 23.22 39.77 22.58 39.77 21.88C39.77 20.29 38.45 19 36.82 19C35.2 19 33.87 20.29 33.87 21.88C33.87 22.58 34.13 23.22 34.55 23.71C34.17 23.9 33.85 24.18 33.61 24.51C33.36 24.18 33.04 23.9 32.66 23.71C33.08 23.22 33.34 22.58 33.34 21.88C33.34 20.29 32.01 19 30.39 19C28.76 19 27.44 20.29 27.44 21.88C27.44 22.58 27.69 23.22 28.12 23.71C27.74 23.9 27.41 24.18 27.17 24.51C26.92 24.18 26.6 23.9 26.22 23.71C26.65 23.22 26.9 22.58 26.9 21.88C26.9 20.29 25.58 19 23.95 19C22.32 19 21 20.29 21 21.88C21 22.58 21.26 23.22 21.68 23.71C20.81 24.15 20.22 25.04 20.22 26.06L20.22 28.32C20.22 28.99 20.78 29.53 21.46 29.53L21.46 29.53ZM36.82 20C37.89 20 38.75 20.84 38.75 21.88C38.75 22.92 37.89 23.76 36.82 23.76C35.76 23.76 34.9 22.92 34.9 21.88C34.9 20.84 35.76 20 36.82 20L36.82 20ZM35.49 24.45C35.89 24.65 36.35 24.76 36.82 24.76C37.3 24.76 37.75 24.65 38.15 24.45C38.95 24.58 39.53 25.25 39.53 26.06L39.53 28.32C39.53 28.44 39.43 28.53 39.31 28.53L34.33 28.53C34.21 28.53 34.12 28.44 34.12 28.32L34.12 26.06C34.12 25.25 34.7 24.58 35.49 24.45L35.49 24.45ZM30.39 20C31.45 20 32.31 20.84 32.31 21.88C32.31 22.92 31.45 23.76 30.39 23.76C29.32 23.76 28.46 22.92 28.46 21.88C28.46 20.84 29.32 20 30.39 20L30.39 20ZM29.06 24.45C29.46 24.65 29.91 24.76 30.39 24.76C30.86 24.76 31.32 24.65 31.72 24.45C32.51 24.58 33.09 25.25 33.09 26.06L33.09 28.32C33.09 28.44 33 28.53 32.88 28.53L27.9 28.53C27.78 28.53 27.68 28.44 27.68 28.32L27.68 26.06C27.68 25.25 28.26 24.58 29.06 24.45L29.06 24.45ZM23.95 20C25.01 20 25.88 20.84 25.88 21.88C25.88 22.92 25.01 23.76 23.95 23.76C22.89 23.76 22.02 22.92 22.02 21.88C22.02 20.84 22.89 20 23.95 20L23.95 20ZM21.24 26.06C21.24 25.25 21.83 24.58 22.62 24.45C23.02 24.65 23.47 24.76 23.95 24.76C24.43 24.76 24.88 24.65 25.28 24.45C26.07 24.58 26.66 25.25 26.66 26.06L26.66 28.32C26.66 28.44 26.56 28.53 26.44 28.53L21.46 28.53C21.34 28.53 21.24 28.44 21.24 28.32L21.24 26.06ZM21.24 26.06" />
	</g>
</svg>