<svg version="1.2" baseProfile="tiny-ps" xmlns="http://www.w3.org/2000/svg" viewBox="0 0 19 23" width="19" height="23">
	<title>bag</title>
	<style>
		tspan { white-space:pre }
		.shp0 { fill: #fe3e57 } 
	</style>
	<path id="bag" class="shp0" d="M17 18.29L15.85 5.4C15.83 5.11 15.59 4.89 15.31 4.89L12.95 4.89C12.92 2.74 11.16 1 9.01 1C6.85 1 5.09 2.74 5.06 4.89L2.7 4.89C2.42 4.89 2.18 5.11 2.16 5.4L1.01 18.29C1.01 18.31 1.01 18.33 1.01 18.34C1.01 19.81 2.35 21.01 4.01 21.01L14 21.01C15.66 21.01 17 19.81 17 18.34C17 18.33 17 18.31 17 18.29L17 18.29ZM9.01 2.11C10.55 2.11 11.82 3.35 11.85 4.89L6.16 4.89C6.19 3.35 7.46 2.11 9.01 2.11L9.01 2.11ZM14 19.9L4.01 19.9C2.97 19.9 2.13 19.21 2.11 18.37L3.21 6L5.05 6L5.05 7.68C5.05 7.98 5.3 8.23 5.6 8.23C5.91 8.23 6.16 7.98 6.16 7.68L6.16 6L11.85 6L11.85 7.68C11.85 7.98 12.09 8.23 12.4 8.23C12.71 8.23 12.95 7.98 12.95 7.68L12.95 6L14.8 6L15.9 18.37C15.88 19.21 15.04 19.9 14 19.9L14 19.9ZM14 19.9" />
</svg>