<svg version="1.2" baseProfile="tiny-ps" xmlns="http://www.w3.org/2000/svg" viewBox="0 0 27 23" width="27" height="23">
	<title>love</title>
	<style>
		tspan { white-space:pre }
		.shp0 { fill: #29282d } 
	</style>
	<path id="love" class="shp0" d="M18.89 2C16.47 2 14.93 3.42 14.07 4.62C13.85 4.93 13.66 5.24 13.5 5.53C13.34 5.24 13.15 4.93 12.93 4.62C12.07 3.42 10.53 2 8.11 2C6.38 2 4.81 2.7 3.68 3.96C2.59 5.17 2 6.79 2 8.52C2 10.41 2.74 12.16 4.35 14.03C5.78 15.71 7.85 17.44 10.24 19.45C11.13 20.19 12.05 20.97 13.03 21.81L13.06 21.83C13.18 21.94 13.34 22 13.5 22C13.66 22 13.82 21.94 13.95 21.83L13.97 21.81C14.95 20.97 15.88 20.19 16.77 19.45C19.16 17.44 21.22 15.71 22.65 14.03C24.26 12.16 25.01 10.41 25.01 8.52C25.01 6.79 24.41 5.17 23.33 3.96C22.19 2.7 20.62 2 18.89 2ZM15.89 18.44C15.12 19.08 14.33 19.74 13.5 20.46C12.67 19.74 11.88 19.08 11.11 18.44C6.43 14.52 3.34 11.93 3.34 8.52C3.34 7.11 3.82 5.81 4.69 4.84C5.56 3.86 6.78 3.33 8.11 3.33C9.96 3.33 11.15 4.44 11.83 5.39C12.44 6.23 12.75 7.08 12.86 7.4C12.95 7.68 13.21 7.86 13.5 7.86C13.79 7.86 14.05 7.68 14.14 7.4C14.25 7.08 14.57 6.23 15.17 5.39C15.85 4.44 17.05 3.33 18.89 3.33C20.23 3.33 21.44 3.86 22.32 4.84C23.18 5.81 23.66 7.11 23.66 8.52C23.66 11.93 20.57 14.52 15.89 18.44Z" />
</svg>