<svg version="1.2" baseProfile="tiny-ps" xmlns="http://www.w3.org/2000/svg" viewBox="0 0 22 24" width="22" height="24">
	<title>search</title>
	<style>
		tspan { white-space:pre }
		.shp0 { fill: #29282d } 
	</style>
	<path id="search" class="shp0" d="M19.71 20.22L15.03 15.27C16.23 13.81 16.89 11.98 16.89 10.08C16.89 5.62 13.33 2 8.95 2C4.57 2 1.01 5.62 1.01 10.08C1.01 14.53 4.57 18.15 8.95 18.15C10.59 18.15 12.16 17.65 13.5 16.69L18.22 21.68C18.41 21.89 18.68 22 18.96 22C19.23 22 19.49 21.9 19.68 21.71C20.09 21.31 20.1 20.64 19.71 20.22L19.71 20.22ZM8.95 4.11C12.18 4.11 14.82 6.78 14.82 10.08C14.82 13.37 12.18 16.05 8.95 16.05C5.71 16.05 3.08 13.37 3.08 10.08C3.08 6.78 5.71 4.11 8.95 4.11L8.95 4.11ZM8.95 4.11" />
</svg>