<svg version="1.2" baseProfile="tiny-ps" xmlns="http://www.w3.org/2000/svg" viewBox="0 0 1632 373" width="1632" height="373">
	<title>Shape 22</title>
	<style>
		tspan { white-space:pre }
		.shp0 { fill: #fe3e57 } 
		.shp1 { fill: #34c3ff } 
	</style>
	<path id="Shape 24" class="shp0" d="M1595.5 311C1582.52 311 1572 321.52 1572 334.5C1572 347.48 1582.52 358 1595.5 358C1608.48 358 1619 347.48 1619 334.5C1619 321.52 1608.48 311 1595.5 311ZM1595.5 353.19C1585.17 353.19 1576.8 344.83 1576.8 334.5C1576.8 324.17 1585.17 315.8 1595.5 315.8C1605.83 315.8 1614.2 324.17 1614.2 334.5C1614.2 344.83 1605.83 353.19 1595.5 353.19ZM1595.52 328.89C1592.42 328.89 1589.9 331.38 1589.89 334.48C1589.89 337.58 1592.38 340.09 1595.48 340.1C1598.58 340.11 1601.1 337.61 1601.11 334.52C1601.12 331.42 1598.61 328.9 1595.52 328.89Z" />
	<path id="Shape 22" class="shp1" d="M83.4 30.77C82.2 30.77 81.24 31.73 81.24 32.92C81.24 34.11 82.2 35.08 83.4 35.08C84.59 35.08 85.56 34.11 85.56 32.92C85.56 31.73 84.59 30.77 83.4 30.77ZM68.99 30.77C67.8 30.77 66.83 31.73 66.83 32.92C66.83 34.11 67.8 35.08 68.99 35.08C70.18 35.08 71.15 34.11 71.15 32.92C71.15 31.73 70.18 30.77 68.99 30.77ZM68.99 16.38C67.8 16.38 66.83 17.35 66.83 18.54C66.83 19.73 67.8 20.7 68.99 20.7C70.18 20.7 71.15 19.73 71.15 18.54C71.15 17.35 70.18 16.38 68.99 16.38ZM54.58 16.38C54.58 16.38 54.58 16.38 54.58 16.38L54.58 16.38C53.39 16.38 52.42 17.35 52.42 18.54C52.42 19.73 53.39 20.7 54.58 20.7L54.58 20.7C54.58 20.7 54.58 20.7 54.58 20.7C55.78 20.7 56.75 19.73 56.75 18.54C56.75 17.35 55.78 16.38 54.58 16.38ZM76.19 37.96C75 37.96 74.03 38.92 74.03 40.12C74.03 41.31 75 42.27 76.19 42.27C77.39 42.27 78.35 41.31 78.35 40.12C78.35 38.92 77.39 37.96 76.19 37.96ZM90.6 37.96C89.41 37.96 88.44 38.92 88.44 40.12C88.44 41.31 89.41 42.27 90.6 42.27C91.79 42.27 92.76 41.31 92.76 40.12C92.76 38.92 91.79 37.96 90.6 37.96ZM76.19 23.57C75 23.57 74.03 24.54 74.03 25.73C74.03 26.92 75 27.89 76.19 27.89C77.39 27.89 78.35 26.92 78.35 25.73C78.35 24.54 77.39 23.57 76.19 23.57ZM61.79 23.57C60.59 23.57 59.63 24.54 59.63 25.73C59.63 26.92 60.59 27.89 61.79 27.89C62.98 27.89 63.95 26.92 63.95 25.73C63.95 24.54 62.98 23.57 61.79 23.57ZM97.81 59.53C96.61 59.53 95.64 60.5 95.64 61.69C95.64 62.88 96.61 63.85 97.81 63.85C99 63.85 99.96 62.88 99.96 61.69C99.96 60.5 99 59.53 97.81 59.53ZM83.4 59.53C82.2 59.53 81.24 60.5 81.24 61.69C81.24 62.88 82.2 63.85 83.4 63.85C84.59 63.85 85.56 62.88 85.56 61.69C85.56 60.5 84.59 59.53 83.4 59.53ZM68.99 59.53C67.8 59.53 66.83 60.5 66.83 61.69C66.83 62.88 67.8 63.85 68.99 63.85C70.18 63.85 71.15 62.88 71.15 61.69C71.15 60.5 70.18 59.53 68.99 59.53ZM97.81 45.15C96.61 45.15 95.64 46.12 95.64 47.31C95.64 48.5 96.61 49.46 97.81 49.46C99 49.46 99.96 48.5 99.96 47.31C99.96 46.12 99 45.15 97.81 45.15ZM83.4 45.15C82.2 45.15 81.24 46.12 81.24 47.31C81.24 48.5 82.2 49.46 83.4 49.46C84.59 49.46 85.56 48.5 85.56 47.31C85.56 46.12 84.59 45.15 83.4 45.15ZM68.99 45.15C67.8 45.15 66.83 46.12 66.83 47.31C66.83 48.5 67.8 49.46 68.99 49.46C70.18 49.46 71.15 48.5 71.15 47.31C71.15 46.12 70.18 45.15 68.99 45.15ZM54.58 45.15C54.58 45.15 54.58 45.15 54.58 45.15L54.58 45.15C53.39 45.15 52.42 46.12 52.42 47.31C52.42 48.5 53.39 49.46 54.58 49.46L54.58 49.46C54.58 49.46 54.58 49.46 54.58 49.46C55.78 49.46 56.75 48.5 56.75 47.31C56.75 46.12 55.78 45.15 54.58 45.15ZM76.19 66.73C75 66.73 74.03 67.69 74.03 68.88C74.03 70.07 75 71.04 76.19 71.04C77.39 71.04 78.35 70.07 78.35 68.88C78.35 67.69 77.39 66.73 76.19 66.73ZM90.6 66.73C89.41 66.73 88.44 67.69 88.44 68.88C88.44 70.07 89.41 71.04 90.6 71.04C91.79 71.04 92.76 70.07 92.76 68.88C92.76 67.69 91.79 66.73 90.6 66.73ZM76.19 52.34C75 52.34 74.03 53.31 74.03 54.5C74.03 55.69 75 56.66 76.19 56.66C77.39 56.66 78.35 55.69 78.35 54.5C78.35 53.31 77.39 52.34 76.19 52.34ZM92.76 54.5C92.76 53.31 91.79 52.34 90.6 52.34C89.41 52.34 88.44 53.31 88.44 54.5C88.44 55.69 89.41 56.66 90.6 56.66C91.79 56.66 92.76 55.69 92.76 54.5ZM105.01 52.34C103.81 52.34 102.85 53.31 102.85 54.5C102.85 55.69 103.81 56.66 105.01 56.66C106.2 56.66 107.17 55.69 107.17 54.5C107.17 53.31 106.2 52.34 105.01 52.34ZM61.79 52.34C60.59 52.34 59.63 53.31 59.63 54.5C59.63 55.69 60.59 56.66 61.79 56.66C62.98 56.66 63.95 55.69 63.95 54.5C63.95 53.31 62.98 52.34 61.79 52.34ZM68.99 88.3C67.8 88.3 66.83 89.27 66.83 90.46C66.83 91.65 67.8 92.62 68.99 92.62C70.18 92.62 71.15 91.65 71.15 90.46C71.15 89.27 70.18 88.3 68.99 88.3ZM83.4 73.92C82.2 73.92 81.24 74.88 81.24 76.07C81.24 77.27 82.2 78.23 83.4 78.23C84.59 78.23 85.56 77.27 85.56 76.07C85.56 74.88 84.59 73.92 83.4 73.92ZM68.99 73.92C67.8 73.92 66.83 74.88 66.83 76.07C66.83 77.27 67.8 78.23 68.99 78.23C70.18 78.23 71.15 77.27 71.15 76.07C71.15 74.88 70.18 73.92 68.99 73.92ZM54.58 73.92C54.58 73.92 54.58 73.92 54.58 73.92L54.58 73.92C53.39 73.92 52.42 74.88 52.42 76.07C52.42 77.27 53.39 78.23 54.58 78.23L54.58 78.23C54.58 78.23 54.58 78.23 54.58 78.23C55.78 78.23 56.75 77.27 56.75 76.07C56.75 74.88 55.78 73.92 54.58 73.92ZM76.19 81.11C75 81.11 74.03 82.07 74.03 83.27C74.03 84.46 75 85.42 76.19 85.42C77.39 85.42 78.35 84.46 78.35 83.27C78.35 82.07 77.39 81.11 76.19 81.11ZM61.79 81.11C60.59 81.11 59.63 82.07 59.63 83.27C59.63 84.46 60.59 85.42 61.79 85.42C62.98 85.42 63.95 84.46 63.95 83.27C63.95 82.07 62.98 81.11 61.79 81.11ZM54.58 102.68C54.58 102.68 54.58 102.68 54.58 102.68L54.58 102.68C53.39 102.68 52.42 103.65 52.42 104.84C52.42 106.03 53.39 107 54.58 107L54.58 107C54.58 107 54.58 107 54.58 107C55.78 107 56.75 106.03 56.75 104.84C56.75 103.65 55.78 102.68 54.58 102.68ZM54.58 6.31C55.78 6.31 56.74 5.35 56.74 4.16C56.74 2.96 55.78 2 54.58 2C53.39 2 52.42 2.96 52.42 4.16C52.42 5.35 53.39 6.31 54.58 6.31ZM47.38 9.19C46.19 9.19 45.22 10.16 45.22 11.35C45.22 12.54 46.19 13.5 47.38 13.5C48.57 13.5 49.54 12.54 49.54 11.35C49.54 10.16 48.57 9.19 47.38 9.19ZM61.79 13.5C62.98 13.5 63.95 12.54 63.95 11.35C63.95 10.16 62.98 9.19 61.79 9.19C60.59 9.19 59.63 10.16 59.63 11.35C59.63 12.54 60.59 13.5 61.79 13.5ZM54.58 35.08C55.78 35.08 56.74 34.11 56.74 32.92C56.74 31.73 55.78 30.77 54.58 30.77C53.39 30.77 52.42 31.73 52.42 32.92C52.42 34.11 53.39 35.08 54.58 35.08ZM47.38 37.96C46.19 37.96 45.22 38.92 45.22 40.12C45.22 41.31 46.19 42.27 47.38 42.27C48.57 42.27 49.54 41.31 49.54 40.12C49.54 38.92 48.57 37.96 47.38 37.96ZM61.79 42.27C62.98 42.27 63.95 41.31 63.95 40.12C63.95 38.92 62.98 37.96 61.79 37.96C60.59 37.96 59.63 38.92 59.63 40.12C59.63 41.31 60.59 42.27 61.79 42.27ZM47.38 23.57C46.19 23.57 45.22 24.54 45.22 25.73C45.22 26.92 46.19 27.89 47.38 27.89C48.57 27.89 49.54 26.92 49.54 25.73C49.54 24.54 48.57 23.57 47.38 23.57ZM33.82 23.74C33.56 23.63 33.27 23.57 32.97 23.57L32.97 23.57L32.97 23.57C32.08 23.57 31.31 24.12 30.98 24.89C30.87 25.15 30.81 25.43 30.81 25.73C30.81 26.03 30.87 26.31 30.98 26.57C31.31 27.35 32.08 27.89 32.97 27.89L32.97 27.89L32.97 27.89C33.27 27.89 33.56 27.83 33.82 27.72C34.59 27.39 35.13 26.63 35.13 25.73C35.13 24.84 34.59 24.07 33.82 23.74ZM54.58 63.85C55.78 63.85 56.74 62.88 56.74 61.69C56.74 60.5 55.78 59.53 54.58 59.53C53.39 59.53 52.42 60.5 52.42 61.69C52.42 62.88 53.39 63.85 54.58 63.85ZM47.38 66.73C46.19 66.73 45.22 67.69 45.22 68.88C45.22 70.07 46.19 71.04 47.38 71.04C48.57 71.04 49.54 70.07 49.54 68.88C49.54 67.69 48.57 66.73 47.38 66.73ZM61.79 71.04C62.98 71.04 63.95 70.07 63.95 68.88C63.95 67.69 62.98 66.73 61.79 66.73C60.59 66.73 59.63 67.69 59.63 68.88C59.63 70.07 60.59 71.04 61.79 71.04ZM47.38 52.34C46.19 52.34 45.22 53.31 45.22 54.5C45.22 55.69 46.19 56.66 47.38 56.66C48.57 56.66 49.54 55.69 49.54 54.5C49.54 53.31 48.57 52.34 47.38 52.34ZM33.82 52.51C33.56 52.4 33.27 52.34 32.97 52.34L32.97 52.34L32.97 52.34C32.08 52.34 31.31 52.88 30.98 53.66C30.87 53.92 30.81 54.2 30.81 54.5C30.81 54.8 30.87 55.08 30.98 55.34C31.31 56.11 32.08 56.66 32.97 56.66L32.97 56.66L32.97 56.66C33.27 56.66 33.56 56.6 33.82 56.49C34.59 56.16 35.13 55.39 35.13 54.5C35.13 53.61 34.59 52.84 33.82 52.51ZM54.58 92.62C55.78 92.62 56.74 91.65 56.74 90.46C56.74 89.27 55.78 88.3 54.58 88.3C53.39 88.3 52.42 89.27 52.42 90.46C52.42 91.65 53.39 92.62 54.58 92.62ZM47.38 95.49C46.19 95.49 45.22 96.46 45.22 97.65C45.22 98.84 46.19 99.81 47.38 99.81C48.57 99.81 49.54 98.84 49.54 97.65C49.54 96.46 48.57 95.49 47.38 95.49ZM61.79 95.49C60.59 95.49 59.63 96.46 59.63 97.65C59.63 98.84 60.59 99.81 61.79 99.81C62.98 99.81 63.95 98.84 63.95 97.65C63.95 96.46 62.98 95.49 61.79 95.49ZM47.38 81.11C46.19 81.11 45.22 82.07 45.22 83.27C45.22 84.46 46.19 85.42 47.38 85.42C48.57 85.42 49.54 84.46 49.54 83.27C49.54 82.07 48.57 81.11 47.38 81.11ZM33.82 81.28C33.56 81.17 33.27 81.11 32.97 81.11L32.97 81.11L32.97 81.11C32.08 81.11 31.31 81.65 30.98 82.43C30.87 82.68 30.81 82.97 30.81 83.27C30.81 83.56 30.87 83.85 30.98 84.11C31.31 84.88 32.08 85.42 32.97 85.42L32.97 85.42L32.97 85.42C33.27 85.42 33.56 85.36 33.82 85.25C34.59 84.93 35.13 84.16 35.13 83.27C35.13 82.37 34.59 81.61 33.82 81.28ZM40.18 30.77L40.18 30.77C40.18 30.77 40.18 30.77 40.18 30.77C39.28 30.77 38.51 31.31 38.19 32.08C38.08 32.34 38.02 32.62 38.02 32.92C38.02 33.22 38.08 33.5 38.19 33.76C38.51 34.54 39.28 35.08 40.18 35.08C40.18 35.08 40.18 35.08 40.18 35.08L40.18 35.08C41.07 35.08 41.84 34.54 42.17 33.76C42.28 33.5 42.34 33.22 42.34 32.92C42.34 32.62 42.28 32.34 42.17 32.08C41.84 31.31 41.07 30.77 40.18 30.77ZM25.77 30.77C24.58 30.77 23.61 31.73 23.61 32.92C23.61 34.11 24.58 35.08 25.77 35.08C26.96 35.08 27.93 34.11 27.93 32.92C27.93 31.73 26.96 30.77 25.77 30.77ZM40.18 16.38L40.18 16.38C40.18 16.38 40.18 16.38 40.18 16.38C39.28 16.38 38.51 16.92 38.19 17.7C38.08 17.96 38.02 18.24 38.02 18.54C38.02 18.84 38.08 19.12 38.19 19.38C38.51 20.15 39.28 20.7 40.18 20.7C40.18 20.7 40.18 20.7 40.18 20.7L40.18 20.7C41.07 20.7 41.84 20.15 42.17 19.38C42.28 19.12 42.34 18.84 42.34 18.54C42.34 18.24 42.28 17.96 42.17 17.7C41.84 16.92 41.07 16.38 40.18 16.38ZM18.57 37.96C17.37 37.96 16.41 38.92 16.41 40.12C16.41 41.31 17.37 42.27 18.57 42.27C19.76 42.27 20.73 41.31 20.73 40.12C20.73 38.92 19.76 37.96 18.57 37.96ZM32.97 37.96C31.78 37.96 30.81 38.92 30.81 40.12C30.81 41.31 31.78 42.27 32.97 42.27C34.17 42.27 35.13 41.31 35.13 40.12C35.13 38.92 34.17 37.96 32.97 37.96ZM40.18 59.53L40.18 59.53C40.18 59.53 40.18 59.53 40.18 59.53C39.28 59.53 38.51 60.08 38.19 60.85C38.08 61.11 38.02 61.39 38.02 61.69C38.02 61.99 38.08 62.27 38.19 62.53C38.51 63.31 39.28 63.85 40.18 63.85C40.18 63.85 40.18 63.85 40.18 63.85L40.18 63.85C41.07 63.85 41.84 63.31 42.17 62.53C42.28 62.27 42.34 61.99 42.34 61.69C42.34 61.39 42.28 61.11 42.17 60.85C41.84 60.08 41.07 59.53 40.18 59.53ZM25.77 59.53C24.58 59.53 23.61 60.5 23.61 61.69C23.61 62.88 24.58 63.85 25.77 63.85C26.96 63.85 27.93 62.88 27.93 61.69C27.93 60.5 26.96 59.53 25.77 59.53ZM11.36 59.53C10.17 59.53 9.2 60.5 9.2 61.69C9.2 62.88 10.17 63.85 11.36 63.85C12.56 63.85 13.52 62.88 13.52 61.69C13.52 60.5 12.56 59.53 11.36 59.53ZM40.18 45.15L40.18 45.15C40.18 45.15 40.18 45.15 40.18 45.15C39.28 45.15 38.51 45.69 38.19 46.47C38.08 46.73 38.02 47.01 38.02 47.31C38.02 47.6 38.08 47.89 38.19 48.15C38.51 48.92 39.28 49.46 40.18 49.46C40.18 49.46 40.18 49.46 40.18 49.46L40.18 49.46C41.07 49.46 41.84 48.92 42.17 48.15C42.28 47.89 42.34 47.6 42.34 47.31C42.34 47.01 42.28 46.73 42.17 46.47C41.84 45.69 41.07 45.15 40.18 45.15ZM25.77 45.15C24.58 45.15 23.61 46.12 23.61 47.31C23.61 48.5 24.58 49.46 25.77 49.46C26.96 49.46 27.93 48.5 27.93 47.31C27.93 46.12 26.96 45.15 25.77 45.15ZM11.36 45.15C10.17 45.15 9.2 46.12 9.2 47.31C9.2 48.5 10.17 49.46 11.36 49.46C12.56 49.46 13.52 48.5 13.52 47.31C13.52 46.12 12.56 45.15 11.36 45.15ZM18.57 66.73C17.37 66.73 16.41 67.69 16.41 68.88C16.41 70.07 17.37 71.04 18.57 71.04C19.76 71.04 20.73 70.07 20.73 68.88C20.73 67.69 19.76 66.73 18.57 66.73ZM32.97 66.73C31.78 66.73 30.81 67.69 30.81 68.88C30.81 70.07 31.78 71.04 32.97 71.04C34.17 71.04 35.13 70.07 35.13 68.88C35.13 67.69 34.17 66.73 32.97 66.73ZM18.57 52.34C17.37 52.34 16.41 53.31 16.41 54.5C16.41 55.69 17.37 56.66 18.57 56.66C19.76 56.66 20.73 55.69 20.73 54.5C20.73 53.31 19.76 52.34 18.57 52.34ZM4.16 52.34C2.97 52.34 2 53.31 2 54.5C2 55.69 2.97 56.66 4.16 56.66C5.35 56.66 6.32 55.69 6.32 54.5C6.32 53.31 5.35 52.34 4.16 52.34ZM40.18 88.3L40.18 88.3C40.18 88.3 40.18 88.3 40.18 88.3C39.28 88.3 38.51 88.84 38.19 89.62C38.08 89.88 38.02 90.16 38.02 90.46C38.02 90.76 38.08 91.04 38.19 91.3C38.51 92.07 39.28 92.62 40.18 92.62C40.18 92.62 40.18 92.62 40.18 92.62L40.18 92.62C41.07 92.62 41.84 92.07 42.17 91.3C42.28 91.04 42.34 90.76 42.34 90.46C42.34 90.16 42.28 89.88 42.17 89.62C41.84 88.84 41.07 88.3 40.18 88.3ZM40.18 73.92L40.18 73.92C40.18 73.92 40.18 73.92 40.18 73.92C39.28 73.92 38.51 74.46 38.19 75.23C38.08 75.49 38.02 75.78 38.02 76.07C38.02 76.37 38.08 76.66 38.19 76.91C38.51 77.69 39.28 78.23 40.18 78.23C40.18 78.23 40.18 78.23 40.18 78.23L40.18 78.23C41.07 78.23 41.84 77.69 42.17 76.91C42.28 76.66 42.34 76.37 42.34 76.07C42.34 75.78 42.28 75.49 42.17 75.23C41.84 74.46 41.07 73.92 40.18 73.92ZM25.77 73.92C24.58 73.92 23.61 74.88 23.61 76.07C23.61 77.27 24.58 78.23 25.77 78.23C26.96 78.23 27.93 77.27 27.93 76.07C27.93 74.88 26.96 73.92 25.77 73.92Z" />
</svg>