<svg version="1.2" baseProfile="tiny-ps" xmlns="http://www.w3.org/2000/svg" viewBox="0 0 132 132" width="132" height="132">
	<title>play btn</title>
	<style>
		tspan { white-space:pre }
		.shp0 { opacity: 0.2;fill: #fe3e57 } 
		.shp1 { opacity: 0.6;fill: #fe3e57 } 
		.shp2 { fill: #fe3e57 } 
		.shp3 { fill: #ffffff } 
	</style>
	<g id="play btn">
		<path id="Ellipse 7 copy 2" class="shp0" d="M66 1C101.9 1 131 30.1 131 66C131 101.9 101.9 131 66 131C30.1 131 1 101.9 1 66C1 30.1 30.1 1 66 1Z" />
		<path id="Ellipse 7 copy" class="shp1" d="M66 11C96.38 11 121 35.62 121 66C121 96.38 96.38 121 66 121C35.62 121 11 96.38 11 66C11 35.62 35.62 11 66 11Z" />
		<path id="Ellipse 7" class="shp2" d="M66 21C90.85 21 111 41.15 111 66C111 90.85 90.85 111 66 111C41.15 111 21 90.85 21 66C21 41.15 41.15 21 66 21Z" />
		<path id="Shape 23" class="shp3" d="M72.82 64.14L60.99 56.54C60.45 56.18 59.9 56 59.44 56C58.55 56 58.01 56.67 58.01 57.78L58.01 74.22C58.01 75.33 58.55 76 59.44 76C59.89 76 60.43 75.81 60.98 75.46L72.81 67.86C73.57 67.37 73.99 66.71 73.99 66C73.99 65.29 73.58 64.63 72.82 64.14" />
	</g>
</svg>