<svg version="1.2" baseProfile="tiny-ps" xmlns="http://www.w3.org/2000/svg" viewBox="0 0 19 19" width="19" height="19">
	<title>User</title>
	<style>
		tspan { white-space:pre }
		.shp0 { fill: #fe3e57 } 
	</style>
	<path id="User" class="shp0" d="M15.66 12.34C14.79 11.47 13.75 10.83 12.62 10.44C13.83 9.6 14.62 8.2 14.62 6.62C14.62 4.07 12.55 2 10 2C7.45 2 5.37 4.07 5.37 6.62C5.37 8.2 6.17 9.6 7.38 10.44C6.25 10.83 5.21 11.47 4.34 12.34C2.83 13.85 2 15.86 2 18L3.25 18C3.25 14.28 6.28 11.25 10 11.25C13.72 11.25 16.75 14.28 16.75 18L18 18C18 15.86 17.17 13.85 15.66 12.34ZM6.62 6.62C6.62 4.76 8.14 3.25 10 3.25C11.86 3.25 13.37 4.76 13.37 6.62C13.37 8.49 11.86 10 10 10C8.14 10 6.62 8.49 6.62 6.62Z" />
</svg>