<svg version="1.2" baseProfile="tiny-ps" xmlns="http://www.w3.org/2000/svg" viewBox="0 0 11 12" width="11" height="12">
	<title>angle_right</title>
	<style>
		tspan { white-space:pre }
		.shp0 { fill: #727272 } 
	</style>
	<path id="angle_right" class="shp0" d="M9.91 5.77L5.57 1.11C5.51 1.04 5.44 1.01 5.35 1.01C5.27 1.01 5.2 1.04 5.14 1.11L4.68 1.61C4.61 1.67 4.58 1.75 4.58 1.84C4.58 1.92 4.61 2 4.68 2.07L8.33 6L4.68 9.93C4.61 10 4.58 10.07 4.58 10.16C4.58 10.25 4.61 10.32 4.68 10.39L5.14 10.89C5.2 10.96 5.27 10.99 5.35 10.99C5.44 10.99 5.51 10.96 5.57 10.89L9.91 6.23C9.97 6.16 10 6.09 10 6C10 5.91 9.97 5.84 9.91 5.77L9.91 5.77ZM9.91 5.77M6.43 6C6.43 5.91 6.39 5.84 6.33 5.77L2 1.11C1.93 1.04 1.86 1.01 1.78 1.01C1.7 1.01 1.63 1.04 1.57 1.11L1.1 1.61C1.04 1.67 1.01 1.75 1.01 1.84C1.01 1.92 1.04 2 1.1 2.07L4.76 6L1.1 9.93C1.04 10 1.01 10.07 1.01 10.16C1.01 10.25 1.04 10.32 1.1 10.39L1.57 10.89C1.63 10.96 1.7 10.99 1.78 10.99C1.86 10.99 1.93 10.96 2 10.89L6.33 6.23C6.39 6.16 6.43 6.09 6.43 6L6.43 6ZM6.43 6" />
</svg>