<svg version="1.2" baseProfile="tiny-ps" xmlns="http://www.w3.org/2000/svg" viewBox="0 0 12 11" width="12" height="11">
	<title>arrow</title>
	<style>
		tspan { white-space:pre }
		.shp0 { fill: #fe3e57 } 
	</style>
	<path id="arrow" class="shp0" d="M10.84 5.62L7.23 2.15C7.12 2.05 6.99 2 6.84 2C6.69 2 6.56 2.05 6.45 2.15L6.13 2.47C6.02 2.57 5.97 2.7 5.97 2.84C5.97 2.98 6.02 3.12 6.13 3.22L8.23 5.25L1.54 5.25C1.24 5.25 1 5.47 1 5.76L1 6.21C1 6.5 1.24 6.75 1.54 6.75L8.26 6.75L6.13 8.79C6.02 8.89 5.97 9.02 5.97 9.16C5.97 9.3 6.02 9.43 6.13 9.53L6.45 9.85C6.56 9.94 6.69 10 6.84 10C6.99 10 7.12 9.94 7.23 9.84L10.84 6.37C10.94 6.27 11 6.14 11 6C11 5.86 10.94 5.72 10.84 5.62" />
</svg>