<svg version="1.2" baseProfile="tiny-ps" xmlns="http://www.w3.org/2000/svg" viewBox="0 0 19 19" width="19" height="19">
	<title>Shape 1</title>
	<style>
		tspan { white-space:pre }
		.shp0 { fill: #fe3e57 } 
	</style>
	<path id="Shape 1" class="shp0" d="M16.12 3.25L15.37 3.25L15.37 2L14.12 2L14.12 3.25L5.87 3.25L5.87 2L4.62 2L4.62 3.25L3.87 3.25C2.84 3.25 2 4.09 2 5.12L2 16.12C2 17.16 2.84 18 3.87 18L16.12 18C17.16 18 18 17.16 18 16.12L18 5.12C18 4.09 17.16 3.25 16.12 3.25ZM3.87 4.5L4.62 4.5L4.62 5.75L5.87 5.75L5.87 4.5L14.12 4.5L14.12 5.75L15.37 5.75L15.37 4.5L16.12 4.5C16.47 4.5 16.75 4.78 16.75 5.12L16.75 6.62L3.25 6.62L3.25 5.12C3.25 4.78 3.53 4.5 3.87 4.5ZM16.12 16.75L3.87 16.75C3.53 16.75 3.25 16.47 3.25 16.12L3.25 7.87L16.75 7.87L16.75 16.12C16.75 16.47 16.47 16.75 16.12 16.75ZM4.37 9.19L5.62 9.19L5.62 10.44L4.37 10.44L4.37 9.19ZM6.87 9.19L8.12 9.19L8.12 10.44L6.87 10.44L6.87 9.19ZM9.37 9.19L10.62 9.19L10.62 10.44L9.37 10.44L9.37 9.19ZM11.87 9.19L13.12 9.19L13.12 10.44L11.87 10.44L11.87 9.19ZM14.37 9.19L15.62 9.19L15.62 10.44L14.37 10.44L14.37 9.19ZM4.37 11.69L5.62 11.69L5.62 12.94L4.37 12.94L4.37 11.69ZM6.87 11.69L8.12 11.69L8.12 12.94L6.87 12.94L6.87 11.69ZM9.37 11.69L10.62 11.69L10.62 12.94L9.37 12.94L9.37 11.69ZM11.87 11.69L13.12 11.69L13.12 12.94L11.87 12.94L11.87 11.69ZM4.37 14.19L5.62 14.19L5.62 15.44L4.37 15.44L4.37 14.19ZM6.87 14.19L8.12 14.19L8.12 15.44L6.87 15.44L6.87 14.19ZM9.37 14.19L10.62 14.19L10.62 15.44L9.37 15.44L9.37 14.19ZM11.87 14.19L13.12 14.19L13.12 15.44L11.87 15.44L11.87 14.19ZM14.37 11.69L15.62 11.69L15.62 12.94L14.37 12.94L14.37 11.69Z" />
</svg>