<svg version="1.2" baseProfile="tiny-ps" xmlns="http://www.w3.org/2000/svg" viewBox="0 0 25 23" width="25" height="23">
	<title>cart_icon</title>
	<style>
		tspan { white-space:pre }
		.shp0 { fill: #29282d } 
	</style>
	<path id="cart_icon" class="shp0" d="M18.44 22C16.92 22 15.69 20.78 15.69 19.27C15.69 17.77 16.92 16.55 18.44 16.55C19.95 16.55 21.18 17.77 21.18 19.27C21.18 20.78 19.95 22 18.44 22ZM18.44 18.18C17.83 18.18 17.34 18.67 17.34 19.27C17.34 19.87 17.83 20.36 18.44 20.36C19.04 20.36 19.53 19.87 19.53 19.27C19.53 18.67 19.04 18.18 18.44 18.18ZM20.19 15.38L7.38 15.38C7 15.38 6.67 15.12 6.58 14.75L3.9 3.63L1.84 3.63C1.38 3.63 1.01 3.27 1.01 2.82C1.01 2.37 1.38 2 1.84 2L4.55 2C4.93 2 5.26 2.26 5.35 2.63L6.09 5.7L22.19 5.7C22.45 5.7 22.69 5.82 22.84 6.02C23 6.22 23.05 6.47 22.99 6.72L20.99 14.76C20.9 15.12 20.57 15.38 20.19 15.38ZM8.03 13.74L19.55 13.74L21.14 7.34L6.49 7.34L8.03 13.74ZM8.48 22C6.96 22 5.73 20.78 5.73 19.27C5.73 17.77 6.96 16.55 8.48 16.55C9.99 16.55 11.22 17.77 11.22 19.27C11.22 20.78 9.99 22 8.48 22ZM8.48 18.18C7.87 18.18 7.38 18.67 7.38 19.27C7.38 19.87 7.87 20.36 8.48 20.36C9.08 20.36 9.57 19.87 9.57 19.27C9.57 18.67 9.08 18.18 8.48 18.18Z" />
</svg>