<svg version="1.2" baseProfile="tiny-ps" xmlns="http://www.w3.org/2000/svg" viewBox="0 0 23 23" width="23" height="23">
	<title>checkmark</title>
	<style>
		tspan { white-space:pre }
		.shp0 { fill: #fe3e57 } 
	</style>
	<path id="checkmark" class="shp0" d="M19.07 4.48C17.18 2.59 14.67 1.55 12 1.55C9.33 1.55 6.82 2.59 4.93 4.48C3.04 6.37 2 8.88 2 11.55C2 14.22 3.04 16.73 4.93 18.62C6.82 20.51 9.33 21.55 12 21.55C14.67 21.55 17.18 20.51 19.07 18.62C20.96 16.73 22 14.22 22 11.55C22 8.88 20.96 6.37 19.07 4.48ZM12 20.38C7.13 20.38 3.17 16.42 3.17 11.55C3.17 6.68 7.13 2.72 12 2.72C16.87 2.72 20.83 6.68 20.83 11.55C20.83 16.42 16.87 20.38 12 20.38ZM15.95 8.34L10.77 13.52L8.05 10.79C7.82 10.56 7.45 10.56 7.22 10.79C6.99 11.02 6.99 11.39 7.22 11.62L10.36 14.76C10.47 14.87 10.62 14.93 10.77 14.93C10.92 14.93 11.07 14.87 11.19 14.76L16.78 9.17C17.01 8.94 17.01 8.57 16.78 8.34C16.55 8.11 16.18 8.11 15.95 8.34Z" />
</svg>