<svg version="1.2" baseProfile="tiny-ps" xmlns="http://www.w3.org/2000/svg" viewBox="0 0 19 19" width="19" height="19">
	<title>Comment</title>
	<style>
		tspan { white-space:pre }
		.shp0 { fill: #fe3e57 } 
	</style>
	<path id="Comment" class="shp0" d="M17.37 2L2.62 2C2.28 2 2 2.28 2 2.62L2 15C2 15.34 2.28 15.62 2.62 15.62L8.16 15.62L9.47 17.71C9.59 17.89 9.79 18 10 18C10.21 18 10.41 17.89 10.53 17.71L11.84 15.62L17.37 15.62C17.72 15.62 18 15.34 18 15L18 2.62C18 2.28 17.72 2 17.37 2ZM16.75 14.37L11.5 14.37C11.29 14.37 11.09 14.48 10.97 14.67L10 16.2L9.03 14.67C8.91 14.48 8.71 14.37 8.5 14.37L3.25 14.37L3.25 3.25L16.75 3.25L16.75 14.37ZM9.22 8.81C9.22 8.38 9.57 8.03 10 8.03C10.43 8.03 10.78 8.38 10.78 8.81C10.78 9.24 10.43 9.59 10 9.59C9.57 9.59 9.22 9.24 9.22 8.81ZM6.09 8.81C6.09 8.38 6.44 8.03 6.87 8.03C7.31 8.03 7.66 8.38 7.66 8.81C7.66 9.24 7.31 9.59 6.87 9.59C6.44 9.59 6.09 9.24 6.09 8.81ZM12.34 8.81C12.34 8.38 12.69 8.03 13.12 8.03C13.56 8.03 13.91 8.38 13.91 8.81C13.91 9.24 13.56 9.59 13.12 9.59C12.69 9.59 12.34 9.24 12.34 8.81Z" />
</svg>