<?xml version="1.0" encoding="UTF-8"?>
<svg xmlns="http://www.w3.org/2000/svg" xmlns:xlink="http://www.w3.org/1999/xlink" width="14pt" height="19pt" viewBox="0 0 14 19" version="1.1">
<g id="surface1">
<path style=" stroke:none;fill-rule:nonzero;fill:rgb #8d8d8d;fill-opacity:1;" d="M 14 9.714844 C 14 14.964844 11.21875 18.703125 7.113281 18.703125 C 3.179688 18.703125 0 14.589844 0 9.5 C 0 4.410156 3.179688 0.296875 7.113281 0.296875 C 9.03125 0.296875 10.644531 1.207031 11.886719 2.707031 L 9.949219 5.113281 C 7.414062 1.953125 2.707031 4.328125 2.707031 9.5 C 2.707031 12.710938 4.6875 15.3125 7.113281 15.3125 C 9.933594 15.3125 10.988281 12.699219 11.152344 11.34375 L 7.113281 11.34375 L 7.113281 8.179688 L 13.886719 8.179688 C 13.953125 8.648438 14 9.101562 14 9.714844 Z M 14 9.714844 "/>
</g>
</svg>
