<svg version="1.2" baseProfile="tiny-ps" xmlns="http://www.w3.org/2000/svg" viewBox="0 0 24 23" width="24" height="23">
	<title>heart_icon</title>
	<style>
		tspan { white-space:pre }
		.shp0 { fill: #29282d } 
	</style>
	<path id="heart_icon" class="shp0" d="M21.78 6.59C21.1 4.17 19.1 2.73 17.61 2.22C15.9 1.62 13.86 2.22 12.03 3.83C10.2 2.26 8.15 1.71 6.45 2.26C4.96 2.81 2.96 4.25 2.28 6.63C1.81 8.2 1.77 10.75 4.23 13.85C5.34 15.25 7.05 17.24 8.45 18.81C11.13 21.83 11.56 21.99 11.94 21.99C11.98 21.99 11.98 21.99 12.03 21.99L12.07 21.99L12.11 21.99C12.5 21.99 12.88 21.83 15.56 18.77C16.97 17.16 18.67 15.16 19.78 13.8C22.25 10.71 22.25 8.16 21.78 6.59ZM18.5 12.78C16.54 15.25 13.18 19.11 12.03 20.17C10.88 19.11 7.51 15.25 5.55 12.78C3.94 10.79 3.34 8.84 3.85 7.1C4.36 5.32 5.85 4.25 6.96 3.87C8.19 3.41 9.86 4.04 11.39 5.53C11.69 5.82 12.11 5.87 12.45 5.65C12.54 5.61 12.62 5.57 12.67 5.48C14.2 4.04 15.86 3.41 17.09 3.83C18.2 4.25 19.69 5.32 20.2 7.1C20.71 8.8 20.12 10.79 18.5 12.78Z" />
</svg>