<svg version="1.2" baseProfile="tiny-ps" xmlns="http://www.w3.org/2000/svg" viewBox="0 0 20 19" width="20" height="19">
	<title>home_icon</title>
	<style>
		tspan { white-space:pre }
		.shp0 { fill: #727272 } 
	</style>
	<path id="home_icon" class="shp0" d="M10 2L2.23 8.86C1.96 9.09 1.93 9.51 2.16 9.78L2.16 9.78C2.4 10.05 2.8 10.08 3.07 9.85L3.36 9.59L3.36 16.03C3.36 17.12 4.23 18 5.29 18L8.9 18L8.9 12.73C8.9 12.09 9.41 11.58 10.03 11.58L10.03 11.58C10.65 11.58 11.16 12.09 11.16 12.73L11.16 18L14.7 18C15.77 18 16.64 17.12 16.64 16.03L16.64 9.59L16.92 9.85C17.19 10.08 17.6 10.05 17.83 9.78L17.83 9.78C18.07 9.51 18.04 9.09 17.77 8.86L10 2ZM15.35 16.03C15.35 16.4 15.06 16.69 14.7 16.69L12.45 16.69L12.45 12.73C12.45 11.37 11.37 10.27 10.03 10.27L10.03 10.27C8.7 10.27 7.61 11.37 7.61 12.73L7.61 16.69L5.29 16.69C4.94 16.69 4.65 16.4 4.65 16.03L4.65 8.46L10 3.73L15.35 8.46L15.35 16.03Z" />
</svg>