<?xml version="1.0" encoding="UTF-8"?>
<svg xmlns="http://www.w3.org/2000/svg" xmlns:xlink="http://www.w3.org/1999/xlink" width="14pt" height="18pt" viewBox="0 0 14 18" version="1.1">
<g id="surface1">
<path style=" stroke:none;fill-rule:nonzero;fill: #8d8d8d;fill-opacity:1;" d="M 3.132812 15.75 L 0.230469 15.75 L 0.230469 5.234375 L 3.132812 5.234375 Z M 1.679688 3.800781 C 0.753906 3.800781 0 2.9375 0 1.890625 C 0 0.847656 0.753906 0 1.679688 0 C 2.609375 0 3.363281 0.847656 3.363281 1.890625 C 3.363281 2.9375 2.609375 3.800781 1.679688 3.800781 Z M 13.996094 15.75 L 11.101562 15.75 L 11.101562 10.632812 C 11.101562 9.410156 11.078125 7.847656 9.589844 7.847656 C 8.082031 7.847656 7.851562 9.171875 7.851562 10.542969 L 7.851562 15.75 L 4.953125 15.75 L 4.953125 5.234375 L 7.734375 5.234375 L 7.734375 6.667969 L 7.777344 6.667969 C 8.164062 5.84375 9.109375 4.972656 10.523438 4.972656 C 13.460938 4.972656 14 7.148438 14 9.972656 L 14 15.75 Z M 13.996094 15.75 "/>
</g>
</svg>
