<svg version="1.2" baseProfile="tiny-ps" xmlns="http://www.w3.org/2000/svg" viewBox="0 0 20 24" width="20" height="24">
	<title>Shape 1</title>
	<style>
		tspan { white-space:pre }
		.shp0 { fill: #fe3e57 } 
	</style>
	<path id="Shape 1" class="shp0" d="M1 9.94L1 20.25C1 20.52 1.07 20.77 1.18 21L6.75 15.56C4.62 13.47 3.22 12.11 1 9.94ZM13.25 15.56L18.82 21C18.93 20.77 19 20.52 19 20.25L19 9.94C16.87 12.02 15.41 13.45 13.25 15.56ZM10 7.94C9.67 7.94 9.4 8.2 9.4 8.52C9.4 8.85 9.67 9.11 10 9.11C10.41 9.11 10.53 8.83 10.59 8.48C10.57 8.18 10.32 7.94 10 7.94ZM12.15 16.14L7.85 16.14L2.03 21.83C2.26 21.94 2.52 22 2.8 22L17.2 22C17.48 22 17.74 21.94 17.97 21.83L12.15 16.14ZM3.4 10.62L3.4 7.11L1.6 8.87L3.4 10.62ZM18.4 8.87L16.6 7.11L16.6 10.62L18.4 8.87ZM12.15 14.97L15.4 11.8L15.4 2.75C15.4 2.33 15.05 2 14.63 2L5.26 2C4.89 2 4.6 2.28 4.6 2.64L4.6 11.8L7.85 14.97L12.15 14.97ZM5.8 8.52C5.8 6.26 7.68 4.42 10 4.42C12.31 4.42 14.2 6.26 14.2 8.52C14.2 10.03 12.37 10.85 11.2 9.82C10.88 10.11 10.46 10.28 10 10.28C9.01 10.28 8.2 9.49 8.2 8.52C8.2 7.55 9.01 6.76 10 6.76C10.99 6.76 11.8 7.55 11.8 8.52C11.8 9.3 13 9.3 13 8.52C13 6.91 11.65 5.59 10 5.59C8.34 5.59 7 6.91 7 8.52C7 9.53 7.52 10.45 8.39 10.99C9.28 11.55 10.38 11.6 11.41 11.14C12.13 10.81 12.64 11.88 11.92 12.2C10.54 12.82 9.01 12.78 7.74 11.98C6.53 11.22 5.8 9.93 5.8 8.52Z" />
</svg>