<svg version="1.2" baseProfile="tiny-ps" xmlns="http://www.w3.org/2000/svg" viewBox="0 0 24 24" width="24" height="24">
	<title>phone_icon</title>
	<style>
		tspan { white-space:pre }
		.shp0 { fill: #fe3e57 } 
	</style>
	<path id="phone_icon" class="shp0" d="M21.48 16.76L18.99 14.27C18.33 13.61 17.17 13.61 16.51 14.27L16.09 14.69L21.06 19.66L21.48 19.25C22.16 18.56 22.16 17.45 21.48 16.76ZM13.5 15.41L8.58 10.49C8.1 10.01 8.09 9.26 8.49 8.74L3.53 3.77C1.4 6.26 1.49 10.01 3.84 12.37L11.61 20.15C13.87 22.41 17.57 22.71 20.2 20.46L15.24 15.5C14.72 15.9 13.97 15.88 13.5 15.41ZM9.71 7.47C10.4 6.78 10.4 5.67 9.71 4.98L7.23 2.5C6.57 1.83 5.41 1.83 4.74 2.5L4.33 2.91L9.3 7.89L9.71 7.47Z" />
</svg>