<?xml version="1.0" encoding="UTF-8"?>
<svg xmlns="http://www.w3.org/2000/svg" xmlns:xlink="http://www.w3.org/1999/xlink" width="14pt" height="20pt" viewBox="0 0 14 20" version="1.1">
<g id="surface1">
<path style=" stroke:none;fill-rule:nonzero;fill: #8d8d8d;fill-opacity:1;" d="M 7.4375 0.253906 C 3.695312 0.253906 0 2.925781 0 7.25 C 0 10 1.445312 11.5625 2.320312 11.5625 C 2.679688 11.5625 2.886719 10.484375 2.886719 10.179688 C 2.886719 9.816406 2.023438 9.042969 2.023438 7.53125 C 2.023438 4.390625 4.253906 2.164062 7.140625 2.164062 C 9.625 2.164062 11.460938 3.675781 11.460938 6.453125 C 11.460938 8.527344 10.6875 12.417969 8.171875 12.417969 C 7.261719 12.417969 6.484375 11.714844 6.484375 10.707031 C 6.484375 9.230469 7.449219 7.800781 7.449219 6.277344 C 7.449219 3.691406 4.023438 4.160156 4.023438 7.285156 C 4.023438 7.941406 4.101562 8.667969 4.375 9.265625 C 3.871094 11.585938 2.84375 15.042969 2.84375 17.433594 C 2.84375 18.171875 2.941406 18.898438 3.007812 19.636719 C 3.132812 19.785156 3.070312 19.769531 3.257812 19.695312 C 5.097656 17 5.03125 16.472656 5.863281 12.945312 C 6.3125 13.859375 7.46875 14.351562 8.390625 14.351562 C 12.261719 14.351562 14 10.308594 14 6.664062 C 14 2.785156 10.871094 0.253906 7.4375 0.253906 Z M 7.4375 0.253906 "/>
</g>
</svg>
