<svg version="1.2" baseProfile="tiny-ps" xmlns="http://www.w3.org/2000/svg" viewBox="0 0 23 24" width="23" height="24">
	<title>search</title>
	<style>
		tspan { white-space:pre }
		.shp0 { fill: #29282d } 
	</style>
	<path id="search" class="shp0" d="M20.89 20.7L15.08 14.89C16.18 13.53 16.85 11.8 16.85 9.91C16.85 5.55 13.3 2 8.93 2C4.57 2 1.01 5.55 1.01 9.91C1.01 14.28 4.57 17.83 8.93 17.83C10.81 17.83 12.54 17.17 13.9 16.07L19.71 21.87C19.88 22.04 20.14 22.04 20.3 21.87L20.89 21.29C21.05 21.12 21.05 20.86 20.89 20.7ZM8.93 16.16C5.48 16.16 2.68 13.36 2.68 9.91C2.68 6.47 5.48 3.66 8.93 3.66C12.38 3.66 15.18 6.47 15.18 9.91C15.18 13.36 12.38 16.16 8.93 16.16Z" />
</svg>