<svg version="1.2" baseProfile="tiny-ps" xmlns="http://www.w3.org/2000/svg" viewBox="0 0 18 18" width="18" height="18">
	<title>search_icon</title>
	<style>
		tspan { white-space:pre }
		.shp0 { fill: #ffffff } 
	</style>
	<path id="search_icon" class="shp0" d="M13.01 11.68C13.75 10.67 14.19 9.44 14.19 8.09C14.19 4.73 11.45 2 8.09 2C4.73 2 2 4.73 2 8.09C2 11.45 4.73 14.19 8.09 14.19C9.44 14.19 10.67 13.75 11.68 13.01L15.67 17L17 15.67L13.01 11.68L13.01 11.68ZM8.09 12.31C5.77 12.31 3.87 10.42 3.87 8.09C3.87 5.77 5.77 3.87 8.09 3.87C10.42 3.87 12.31 5.77 12.31 8.09C12.31 10.42 10.42 12.31 8.09 12.31L8.09 12.31ZM8.09 12.31" />
</svg>