<svg version="1.2" baseProfile="tiny-ps" xmlns="http://www.w3.org/2000/svg" viewBox="0 0 23 23" width="23" height="23">
	<title>Shape 16</title>
	<style>
		tspan { white-space:pre }
		.shp0 { fill: #8d8d8d } 
	</style>
	<path id="Shape 16" class="shp0" d="M19.9 7.26C19.48 7.46 19.31 7.96 19.51 8.37C20.06 9.51 20.33 10.72 20.33 12C20.33 16.59 16.59 20.33 12 20.33C7.4 20.33 3.67 16.59 3.67 12C3.67 7.4 7.4 3.67 12 3.67C13.9 3.67 15.69 4.29 17.17 5.46C17.53 5.75 18.06 5.69 18.34 5.33C18.63 4.97 18.57 4.45 18.21 4.16C16.46 2.77 14.25 2 12 2C6.49 2 2 6.49 2 12C2 17.51 6.49 22 12 22C17.51 22 22 17.51 22 12C22 10.47 21.67 9.01 21.01 7.65C20.81 7.23 20.31 7.06 19.9 7.26L19.9 7.26ZM19.9 7.26M12 5.33C11.54 5.33 11.17 5.71 11.17 6.17L11.17 12C11.17 12.46 11.54 12.83 12 12.83L16.17 12.83C16.63 12.83 17 12.46 17 12C17 11.54 16.63 11.17 16.17 11.17L12.83 11.17L12.83 6.17C12.83 5.71 12.46 5.33 12 5.33L12 5.33ZM12 5.33" />
</svg>