<svg version="1.2" baseProfile="tiny-ps" xmlns="http://www.w3.org/2000/svg" viewBox="0 0 22 23" width="22" height="23">
	<title>Shape 15</title>
	<style>
		tspan { white-space:pre }
		.shp0 { fill: #8d8d8d } 
	</style>
	<path id="Shape 15" class="shp0" d="M18.07 14.93C16.98 13.84 15.69 13.03 14.27 12.54C15.79 11.5 16.78 9.75 16.78 7.78C16.78 4.59 14.19 2 11 2C7.81 2 5.22 4.59 5.22 7.78C5.22 9.75 6.21 11.5 7.73 12.54C6.31 13.03 5.02 13.84 3.93 14.93C2.04 16.82 1 19.33 1 22L2.56 22C2.56 17.35 6.35 13.56 11 13.56C15.65 13.56 19.44 17.35 19.44 22L21 22C21 19.33 19.96 16.82 18.07 14.93ZM6.78 7.78C6.78 5.45 8.67 3.56 11 3.56C13.33 3.56 15.22 5.45 15.22 7.78C15.22 10.11 13.33 12 11 12C8.67 12 6.78 10.11 6.78 7.78Z" />
</svg>