<svg version="1.2" baseProfile="tiny-ps" xmlns="http://www.w3.org/2000/svg" viewBox="0 0 23 23" width="23" height="23">
	<title>user</title>
	<style>
		tspan { white-space:pre }
		.shp0 { fill: #29282d } 
	</style>
	<path id="user" class="shp0" d="M19.07 14.93C17.98 13.84 16.69 13.03 15.27 12.54C16.79 11.5 17.78 9.75 17.78 7.78C17.78 4.59 15.19 2 12 2C8.81 2 6.22 4.59 6.22 7.78C6.22 9.75 7.21 11.5 8.73 12.54C7.31 13.03 6.02 13.84 4.93 14.93C3.04 16.82 2 19.33 2 22L3.56 22C3.56 17.35 7.35 13.56 12 13.56C16.65 13.56 20.44 17.35 20.44 22L22 22C22 19.33 20.96 16.82 19.07 14.93ZM7.78 7.78C7.78 5.45 9.67 3.56 12 3.56C14.33 3.56 16.22 5.45 16.22 7.78C16.22 10.11 14.33 12 12 12C9.67 12 7.78 10.11 7.78 7.78Z" />
</svg>